<svg width="190" height="48" viewBox="0 0 190 48" fill="none" xmlns="http://www.w3.org/2000/svg">
<g clip-path="url(#clip0_534_12713)">
<mask id="mask0_534_12713" style="mask-type:luminance" maskUnits="userSpaceOnUse" x="0" y="0" width="189" height="48">
<path d="M188.582 0H0.5V47.9636H188.582V0Z" fill="white"/>
</mask>
<g mask="url(#mask0_534_12713)">
<path d="M72.5957 11.3324V17.3312C72.5957 18.8513 72.2835 20.1814 71.6592 21.3214C71.0349 22.4615 70.0985 23.3437 68.8363 23.968C67.5876 24.5923 66.054 24.918 64.2353 24.918H61.2359V21.0771H64.3439C65.6604 21.0771 66.6647 20.765 67.384 20.1271C68.1034 19.4892 68.4562 18.607 68.4562 17.4398V11.2102C68.4562 10.0566 68.1034 9.16085 67.384 8.52297C66.6647 7.88508 65.6468 7.57292 64.3439 7.57292H61.2359V3.74561H64.2489C66.0133 3.74561 67.5198 4.04419 68.7684 4.62779C70.017 5.22496 70.9671 6.08 71.6185 7.22005C72.27 8.3601 72.5957 9.73088 72.5957 11.3324Z" fill="white"/>
<path d="M61.2359 21.0771H59.2544V24.918H61.2359V21.0771Z" fill="white"/>
<path d="M61.2359 3.74561H59.2544V7.5865H61.2359V3.74561Z" fill="white"/>
<path d="M89.0316 18.0099C89.0316 16.2319 88.7873 14.7119 88.2987 13.4633C87.8101 12.201 87.0908 11.251 86.1543 10.586C85.2178 9.92096 84.0778 9.59521 82.7613 9.59521C81.3498 9.59521 80.1554 9.86668 79.1511 10.4231C78.1603 10.9796 77.4003 11.7803 76.8846 12.8389C76.3688 13.8976 76.111 15.1733 76.111 16.6663V18.3763C76.111 19.8014 76.3824 21.0229 76.9253 22.0408C77.4682 23.0587 78.2553 23.8323 79.2868 24.3616C80.3183 24.8909 81.5669 25.1624 83.0191 25.1624C84.0235 25.1624 85.0142 24.9724 85.9914 24.5788C86.9686 24.1852 87.8508 23.6287 88.638 22.9094L86.0321 20.5886C85.6114 20.9415 85.1228 21.2129 84.6071 21.4029C84.0778 21.5929 83.5485 21.6879 83.0191 21.6879C81.9741 21.6879 81.1733 21.4029 80.5897 20.8464C80.1283 20.3986 79.8433 19.7878 79.7618 19.0278H78.6897V16.327H79.7347C79.7618 15.3769 80.0333 14.6304 80.5219 14.1011C81.0512 13.5311 81.7977 13.2461 82.7613 13.2461C83.4942 13.2461 84.0913 13.4904 84.5256 13.9654C84.9735 14.4404 85.245 15.119 85.3535 15.9877L85.3943 16.3405H79.7347C79.7347 16.4084 79.7347 16.4762 79.7347 16.5441V18.4713C79.7347 18.6749 79.7483 18.8514 79.7754 19.0414H89.0451V18.0099H89.0316Z" fill="white"/>
<path d="M79.7212 16.5034C79.7212 16.4355 79.7212 16.3677 79.7212 16.2998H78.6761V19.0006H79.7483C79.7212 18.8242 79.7076 18.6342 79.7076 18.4306V16.5034H79.7212Z" fill="white"/>
<path d="M96.5233 11.8754V9.79883H92.5331V24.9181H96.5233V15.7841L96.2112 12.4318C96.3062 12.2418 96.4148 12.0518 96.5233 11.8754Z" fill="white"/>
<path d="M96.2112 12.4455L96.5233 15.7978V11.8755C96.4148 12.0519 96.3062 12.2419 96.2112 12.4455Z" fill="white"/>
<path d="M104.667 12.4453C104.639 12.486 104.612 12.5403 104.599 12.581L105.345 16.0691C105.332 14.7254 105.142 13.5718 104.748 12.6082C104.721 12.5539 104.694 12.4996 104.667 12.4453Z" fill="white"/>
<path d="M104.667 12.4457C104.273 11.5364 103.717 10.8442 102.997 10.3556C102.237 9.8399 101.314 9.58203 100.256 9.58203C99.3464 9.58203 98.5592 9.82633 97.8942 10.3149C97.3648 10.6949 96.917 11.2107 96.5234 11.8757V15.798C96.5234 15.0516 96.727 14.468 97.1341 14.0608C97.5413 13.6536 98.1113 13.4365 98.8442 13.4365C99.6449 13.4365 100.256 13.6808 100.69 14.1558C101.124 14.6308 101.341 15.323 101.341 16.2052V24.932H105.332V16.1916C105.332 16.1509 105.332 16.1238 105.332 16.083L104.599 12.5815C104.612 12.5407 104.639 12.5 104.667 12.4457Z" fill="white"/>
<path d="M113.543 12.6086C113.136 11.6178 112.552 10.8714 111.778 10.3556C111.005 9.8399 110.082 9.58203 108.983 9.58203C108.046 9.58203 107.205 9.8399 106.445 10.3556C105.725 10.8442 105.128 11.55 104.653 12.4457C104.68 12.5 104.707 12.5543 104.721 12.6086C105.115 13.5722 105.305 14.7258 105.318 16.0695V16.083C105.318 15.2416 105.522 14.5901 105.942 14.1287C106.35 13.6672 106.947 13.4365 107.707 13.4365C108.48 13.4365 109.078 13.6808 109.512 14.1558C109.933 14.6308 110.15 15.323 110.15 16.2052V24.932H114.14V16.1916C114.154 14.7937 113.95 13.5994 113.543 12.6086Z" fill="white"/>
<path d="M122.079 11.8754V9.79883H118.089V24.9181H122.079V15.7841L121.767 12.4318C121.862 12.2418 121.971 12.0518 122.079 11.8754Z" fill="white"/>
<path d="M121.767 12.4455L122.079 15.7978V11.8755C121.971 12.0519 121.862 12.2419 121.767 12.4455Z" fill="white"/>
<path d="M130.223 12.4457C129.829 11.5364 129.273 10.8442 128.553 10.3556C127.793 9.8399 126.87 9.58203 125.812 9.58203C124.902 9.58203 124.115 9.82633 123.45 10.3149C122.921 10.6949 122.473 11.2107 122.079 11.8757V15.798C122.079 15.0516 122.283 14.468 122.69 14.0608C123.097 13.6536 123.667 13.4365 124.4 13.4365C125.201 13.4365 125.812 13.6808 126.246 14.1558C126.68 14.6308 126.897 15.323 126.897 16.2052V24.932H130.888V16.1916C130.888 16.1509 130.888 16.1238 130.888 16.083L130.141 12.595C130.168 12.5407 130.195 12.5 130.223 12.4457Z" fill="white"/>
<path d="M130.223 12.4453C130.196 12.486 130.168 12.5403 130.155 12.581L130.901 16.0691C130.888 14.7254 130.698 13.5718 130.304 12.6082C130.263 12.5539 130.25 12.4996 130.223 12.4453Z" fill="white"/>
<path d="M139.099 12.6086C138.692 11.6178 138.108 10.8714 137.334 10.3556C136.561 9.8399 135.638 9.58203 134.539 9.58203C133.602 9.58203 132.761 9.8399 132.001 10.3556C131.281 10.8442 130.684 11.55 130.209 12.4457C130.236 12.5 130.263 12.5543 130.277 12.6086C130.671 13.5722 130.861 14.7258 130.874 16.0695V16.083C130.874 15.2416 131.078 14.5901 131.499 14.1287C131.906 13.6672 132.503 13.4365 133.263 13.4365C134.036 13.4365 134.634 13.6808 135.068 14.1558C135.489 14.6308 135.706 15.323 135.706 16.2052V24.932H139.696V16.1916C139.71 14.7937 139.506 13.5994 139.099 12.6086Z" fill="white"/>
<path d="M144.107 23.982C143.306 23.2084 142.899 22.0412 142.899 20.4668C142.899 18.9739 143.347 17.8474 144.243 17.1009C145.138 16.3545 146.482 15.9745 148.287 15.9745H152.074L152.277 19.0146H148.301C147.703 19.0146 147.242 19.1368 146.943 19.3675C146.645 19.6118 146.496 19.9647 146.496 20.4532C146.496 20.9418 146.686 21.3219 147.066 21.5526C147.446 21.7969 148.016 21.9055 148.789 21.9055C149.861 21.9055 150.649 21.7833 151.178 21.539C151.694 21.2947 151.951 20.9147 151.951 20.399L152.264 22.5976C152.209 23.1405 151.951 23.602 151.517 23.982C151.069 24.362 150.526 24.647 149.861 24.837C149.196 25.027 148.491 25.122 147.758 25.122C146.129 25.1492 144.908 24.7556 144.107 23.982ZM151.951 15.3366C151.951 14.6308 151.721 14.1015 151.246 13.7215C150.784 13.3415 150.119 13.1515 149.264 13.1515C148.694 13.1515 148.138 13.2465 147.595 13.4229C147.038 13.6129 146.55 13.8708 146.129 14.1965L143.659 11.7671C144.256 11.075 145.057 10.5456 146.048 10.1521C147.038 9.77204 148.138 9.58203 149.346 9.58203C150.662 9.58203 151.789 9.79918 152.725 10.2471C153.662 10.6949 154.367 11.3328 154.856 12.1743C155.345 13.0158 155.589 14.0337 155.589 15.2144V24.932H151.965V15.3366H151.951Z" fill="white"/>
<path d="M163.515 11.8618V9.79883H159.525V24.9181H163.515V15.7841L163.203 12.4318C163.298 12.2418 163.406 12.0518 163.515 11.8618Z" fill="white"/>
<path d="M163.203 12.4454L163.515 15.7977V11.8618C163.407 12.0518 163.298 12.2418 163.203 12.4454Z" fill="white"/>
<path d="M170.939 11.1971C170.07 10.1249 168.835 9.58203 167.234 9.58203C166.27 9.58203 165.469 9.82633 164.832 10.3014C164.329 10.6814 163.882 11.1971 163.502 11.8621V15.7845C163.502 15.038 163.705 14.4544 164.112 14.0472C164.519 13.6401 165.089 13.4229 165.822 13.4229C166.596 13.4229 167.193 13.6265 167.627 14.0337C168.048 14.4408 168.265 15.0109 168.265 15.7573V24.9185H172.256V15.7437C172.256 13.7894 171.808 12.2693 170.939 11.1971Z" fill="white"/>
<path d="M178.091 24.3751C177.331 23.8594 176.748 23.1129 176.354 22.1357C175.961 21.1586 175.757 19.9778 175.757 18.607V16.1912C175.757 14.8068 175.961 13.6125 176.354 12.6217C176.748 11.631 177.331 10.8845 178.091 10.3688C178.852 9.85303 179.774 9.59515 180.833 9.59515C181.634 9.59515 182.38 9.83946 183.045 10.3145C183.71 10.7895 184.253 11.4817 184.66 12.3639L184.348 15.7162C184.348 15.2004 184.267 14.7661 184.09 14.3997C183.914 14.0468 183.656 13.7618 183.33 13.5718C182.991 13.3818 182.584 13.2868 182.109 13.2868C181.362 13.2868 180.779 13.5446 180.372 14.0468C179.964 14.5625 179.747 15.2683 179.747 16.1912V18.5934C179.747 19.5028 179.951 20.1949 180.372 20.6971C180.779 21.1857 181.362 21.4436 182.109 21.4436C182.584 21.4436 182.991 21.3486 183.33 21.1721C183.67 20.9821 183.914 20.7242 184.09 20.3714C184.267 20.0185 184.348 19.5978 184.348 19.1092L184.552 22.5565C184.24 23.3844 183.765 24.0223 183.127 24.4701C182.489 24.918 181.729 25.1487 180.833 25.1487C179.761 25.1487 178.852 24.8909 178.091 24.3751ZM184.348 3.74561H188.338V24.9316H184.348V3.74561Z" fill="white"/>
<path d="M63.258 31.2836H63.9773V38.2189H63.2851V32.2608L63.353 32.5594L61.2629 37.2553H60.7743L58.6842 32.6544L58.7521 32.2472V38.2053H58.0599V31.27H58.7792L61.005 36.2781L63.258 31.2836Z" fill="white"/>
<path d="M70.1119 31.2837H70.9397L73.4913 38.219H72.7313L70.5326 32.003L68.3203 38.219H67.5603L70.1119 31.2837ZM68.7411 35.8982H72.392V36.5361H68.7411V35.8982Z" fill="white"/>
<path d="M77.1828 31.2837H77.875V38.2326H77.1828V31.2837ZM77.6035 34.6496H79.9651C80.2229 34.6496 80.4537 34.5953 80.6437 34.4867C80.8337 34.3781 80.9965 34.2153 81.0916 34.0117C81.2001 33.8081 81.2544 33.5638 81.2544 33.2924C81.2544 33.0209 81.2001 32.7902 81.0916 32.573C80.983 32.3695 80.8337 32.2066 80.6437 32.098C80.4537 31.9894 80.2229 31.9352 79.9651 31.9352H77.6035V31.2973H79.9379C80.3451 31.2973 80.6844 31.3787 80.9965 31.5416C81.2951 31.7044 81.5394 31.9352 81.7023 32.2473C81.8652 32.5459 81.9466 32.8988 81.9466 33.3059C81.9466 33.6995 81.8652 34.0524 81.7023 34.3645C81.5394 34.6631 81.2951 34.9074 80.9965 35.0703C80.698 35.2332 80.3451 35.3146 79.9379 35.3146H77.6035V34.6496ZM79.8294 35.0703L80.4672 34.8531L82.2452 38.219H81.4309L79.8294 35.0703Z" fill="white"/>
<path d="M86.1812 31.2837H86.8733V38.219H86.1812V31.2837ZM86.5205 36.1153L90.3206 31.2973H91.2028L86.8055 36.6447L86.5205 36.1153ZM88.4748 34.5274L88.8684 33.8217L91.5014 38.2326H90.6871L88.4748 34.5274Z" fill="white"/>
<path d="M95.1794 31.2837H95.8716V38.219H95.1794V31.2837ZM95.6545 31.2837H99.6447V31.9216H95.6545V31.2837ZM95.6545 34.4596H99.1153V35.0974H95.6545V34.4596ZM95.6545 37.5811H99.6447V38.219H95.6545V37.5811Z" fill="white"/>
<path d="M102.875 31.2837H107.774V31.9216H102.875V31.2837ZM104.992 31.5687H105.684V38.219H104.992V31.5687Z" fill="white"/>
<path d="M112.185 38.2327H111.493V31.2974H112.185V38.2327Z" fill="white"/>
<path d="M116.678 31.2837H117.37L121.401 37.5404L121.116 37.3504V31.2973H121.808V38.2326H121.102L116.99 31.9352L117.356 32.2066V38.2326H116.678V31.2837Z" fill="white"/>
<path d="M130.887 34.6768V35.6947C130.887 36.2783 130.792 36.7533 130.616 37.1469C130.44 37.5269 130.168 37.8255 129.802 38.0155C129.449 38.2055 128.987 38.3005 128.458 38.3005C127.915 38.3005 127.454 38.2055 127.087 38.0291C126.721 37.8527 126.449 37.5812 126.273 37.2148C126.096 36.8483 126.001 36.4004 126.001 35.8576V33.8082C126.001 33.2246 126.096 32.7496 126.273 32.3695C126.449 31.9895 126.721 31.7045 127.087 31.5145C127.44 31.3245 127.902 31.2295 128.431 31.2295C128.879 31.2295 129.272 31.3109 129.584 31.4602C129.897 31.6095 130.168 31.8402 130.385 32.1388C130.589 32.4374 130.738 32.831 130.833 33.2924H130.087C130.005 32.9803 129.883 32.7088 129.747 32.5053C129.612 32.3017 129.422 32.1388 129.204 32.0302C128.987 31.9217 128.729 31.8674 128.444 31.8674C128.051 31.8674 127.739 31.9352 127.481 32.0845C127.223 32.2338 127.033 32.451 126.897 32.736C126.775 33.021 126.707 33.3874 126.707 33.8218V35.8711C126.707 36.2783 126.775 36.604 126.897 36.8755C127.033 37.1469 127.223 37.3369 127.481 37.4726C127.739 37.6084 128.078 37.6762 128.472 37.6762C128.852 37.6762 129.177 37.6084 129.422 37.4726C129.666 37.3369 129.856 37.1198 129.978 36.8347C130.1 36.5497 130.168 36.1833 130.168 35.7354V35.3418H128.485V34.7039H130.887V34.6768Z" fill="white"/>
<path d="M142.234 31.2837H143.062L145.613 38.219H144.853L142.641 32.003L140.429 38.219H139.669L142.234 31.2837ZM140.863 35.8982H144.514V36.5361H140.863V35.8982Z" fill="white"/>
<path d="M153.662 34.6768V35.6947C153.662 36.2783 153.567 36.7533 153.39 37.1469C153.214 37.5269 152.942 37.8255 152.576 38.0155C152.223 38.2055 151.761 38.3005 151.232 38.3005C150.689 38.3005 150.228 38.2055 149.861 38.0291C149.495 37.8527 149.223 37.5812 149.047 37.2148C148.871 36.8483 148.776 36.4004 148.776 35.8576V33.8082C148.776 33.2246 148.871 32.7496 149.047 32.3695C149.223 31.9895 149.495 31.7045 149.861 31.5145C150.214 31.3245 150.676 31.2295 151.205 31.2295C151.653 31.2295 152.046 31.3109 152.359 31.4602C152.671 31.6095 152.942 31.8402 153.159 32.1388C153.363 32.4374 153.512 32.831 153.607 33.2924H152.861C152.779 32.9803 152.657 32.7088 152.521 32.5053C152.386 32.3017 152.196 32.1388 151.979 32.0302C151.761 31.9217 151.504 31.8674 151.219 31.8674C150.825 31.8674 150.513 31.9352 150.255 32.0845C149.997 32.2338 149.807 32.451 149.671 32.736C149.549 33.021 149.481 33.3874 149.481 33.8218V35.8711C149.481 36.2783 149.549 36.604 149.671 36.8755C149.807 37.1469 149.997 37.3369 150.255 37.4726C150.513 37.6084 150.852 37.6762 151.246 37.6762C151.626 37.6762 151.951 37.6084 152.196 37.4726C152.44 37.3369 152.63 37.1198 152.752 36.8347C152.874 36.5497 152.942 36.1833 152.942 35.7354V35.3418H151.259V34.7039H153.662V34.6768Z" fill="white"/>
<path d="M157.774 31.2837H158.466V38.219H157.774V31.2837ZM158.249 31.2837H162.239V31.9216H158.249V31.2837ZM158.249 34.4596H161.71V35.0974H158.249V34.4596ZM158.249 37.5811H162.239V38.219H158.249V37.5811Z" fill="white"/>
<path d="M166.243 31.2837H166.935L170.966 37.5404L170.681 37.3504V31.2973H171.373V38.2326H170.667L166.555 31.9352L166.921 32.2066V38.2326H166.229V31.2837H166.243Z" fill="white"/>
<path d="M176.72 37.9747C176.354 37.7575 176.069 37.459 175.879 37.0654C175.689 36.6718 175.58 36.2239 175.58 35.7082V33.8081C175.58 33.2923 175.675 32.8445 175.879 32.4509C176.083 32.0573 176.368 31.7587 176.72 31.5415C177.073 31.3244 177.508 31.2158 177.983 31.2158C178.376 31.2158 178.743 31.2973 179.082 31.4601C179.421 31.623 179.693 31.8537 179.923 32.1523C180.154 32.4509 180.303 32.7902 180.385 33.1838H179.693C179.611 32.9259 179.489 32.6952 179.313 32.4916C179.136 32.288 178.933 32.1387 178.702 32.0301C178.471 31.9216 178.227 31.8673 177.983 31.8673C177.643 31.8673 177.331 31.9487 177.073 32.1116C176.815 32.2744 176.612 32.5052 176.463 32.7902C176.313 33.0888 176.245 33.4281 176.245 33.8081V35.7082C176.245 36.1018 176.313 36.4411 176.463 36.7261C176.612 37.0247 176.802 37.2418 177.073 37.4047C177.331 37.5675 177.63 37.649 177.983 37.649C178.227 37.649 178.471 37.5947 178.702 37.4861C178.933 37.3775 179.136 37.2282 179.313 37.0247C179.489 36.8211 179.611 36.5904 179.693 36.3189H180.385C180.303 36.7125 180.154 37.0518 179.923 37.3504C179.693 37.649 179.421 37.8797 179.082 38.0426C178.743 38.2054 178.39 38.2869 177.983 38.2869C177.508 38.3004 177.087 38.1919 176.72 37.9747Z" fill="white"/>
<path d="M186.329 35.4097V38.2327H185.637V35.4097L183.384 31.2974H184.131L185.977 34.7582L187.822 31.2974H188.569L186.329 35.4097Z" fill="white"/>
<path d="M0.500977 47.8143C3.05252 47.8143 5.48192 47.8143 7.99275 47.8143C7.99275 45.1542 7.99275 42.7248 7.99275 40.2954C5.41406 40.2954 2.97109 40.2954 0.500977 40.2954C0.500977 42.8605 0.500977 45.2899 0.500977 47.8143Z" fill="white"/>
<path d="M47.6503 0.624023H40.145C40.145 0.624023 40.3486 12.9474 40.145 22.475C40.0364 27.3067 39.8193 31.419 39.3985 32.8169V32.8305C39.3035 33.0884 39.2085 33.3462 39.0999 33.5905C35.2048 42.5345 24.0893 39.7523 16.4075 40.2816V47.9091C27.2923 47.9091 38.9642 49.1577 45.2752 38.3C46.0624 36.9428 46.6053 35.5721 46.9853 34.1877C46.9989 34.1741 46.9989 34.147 46.9989 34.1334C47.0125 34.0791 47.026 34.0248 47.0396 33.9841C47.0396 33.9706 47.0532 33.957 47.0532 33.9434C47.0667 33.9027 47.0803 33.862 47.0939 33.8077C47.5146 31.894 47.6911 26.6688 47.7589 20.9278C47.7589 20.7921 47.7589 20.6699 47.7589 20.5342C47.7589 19.747 47.7725 18.9734 47.7861 18.1863V18.0505C47.8132 9.41871 47.6503 0.624023 47.6503 0.624023Z" fill="white"/>
<path d="M31.7845 1.30285V0.0949396L26.315 0.0135073C26.0164 0.0135073 25.7178 -6.47617e-05 25.4192 -6.47617e-05H25.202C22.6641 -0.0136368 20.1125 0.122084 17.6288 0.556389C8.41341 2.14432 1.89883 8.25174 0.92164 17.6843C0.92164 17.6979 0.92164 17.6979 0.92164 17.7115C0.826636 18.7022 0.758775 19.7744 0.745203 20.9416V20.9688C0.541622 25.1897 0.378758 30.347 0.718059 31.9757H8.14197C8.14197 27.7141 8.11483 23.6425 8.14197 19.5844C8.23698 6.3788 22.9355 8.63176 31.7845 8.19746C31.7845 8.19746 31.7845 3.43366 31.7845 1.30285Z" fill="white"/>
<path d="M20.3298 32.4913H28.4595C30.7803 32.4913 32.6532 30.6184 32.6532 28.2975V20.1679C32.6532 17.8471 30.7803 15.9741 28.4595 15.9741H20.3298C18.009 15.9741 16.136 17.8471 16.136 20.1679V28.2975C16.136 30.6048 18.0226 32.4913 20.3298 32.4913Z" fill="white"/>
<path d="M61.2361 7.5865V21.0771H59.2546V24.9316H57.2459V3.74561H59.2546V7.5865H61.2361Z" fill="white"/>
</g>
</g>
<defs>
<clipPath id="clip0_534_12713">
<rect width="189" height="48" fill="white" transform="translate(0.5)"/>
</clipPath>
</defs>
</svg>
