<svg width="129" height="48" viewBox="0 0 129 48" fill="none" xmlns="http://www.w3.org/2000/svg">
<g clip-path="url(#clip0_534_12800)">
<path d="M123.115 36.1605V31.0696H126.307V31.7308H123.883V33.282H126.14V33.9407H123.883V35.4993H126.337V36.1605H123.115Z" fill="white"/>
<path d="M121.107 32.6779C121.059 32.5271 120.995 32.392 120.913 32.2727C120.834 32.1518 120.739 32.049 120.628 31.9645C120.517 31.8783 120.39 31.8129 120.247 31.7681C120.106 31.7234 119.951 31.701 119.782 31.701C119.496 31.701 119.237 31.7747 119.007 31.9222C118.776 32.0697 118.594 32.286 118.46 32.571C118.327 32.8544 118.261 33.2016 118.261 33.6126C118.261 34.0252 118.328 34.3741 118.462 34.6591C118.597 34.9441 118.781 35.1604 119.014 35.3079C119.248 35.4554 119.514 35.5291 119.812 35.5291C120.089 35.5291 120.33 35.4728 120.536 35.3601C120.743 35.2474 120.903 35.0883 121.015 34.8828C121.13 34.6757 121.187 34.4321 121.187 34.152L121.386 34.1893H119.929V33.5554H121.93V34.1346C121.93 34.5621 121.839 34.9334 121.657 35.2482C121.476 35.5614 121.226 35.8034 120.906 35.9741C120.588 36.1448 120.223 36.2301 119.812 36.2301C119.352 36.2301 118.947 36.1241 118.599 35.9119C118.253 35.6998 117.983 35.399 117.789 35.0096C117.595 34.6185 117.498 34.1545 117.498 33.6175C117.498 33.2115 117.554 32.8469 117.667 32.5238C117.78 32.2006 117.938 31.9264 118.142 31.701C118.347 31.474 118.588 31.3008 118.865 31.1815C119.144 31.0605 119.448 31 119.777 31C120.052 31 120.309 31.0406 120.546 31.1218C120.784 31.203 120.996 31.3182 121.182 31.4673C121.369 31.6165 121.524 31.7938 121.647 31.9993C121.769 32.2031 121.852 32.4293 121.895 32.6779H121.107Z" fill="white"/>
<path d="M114.048 36.1605H112.4V31.0696H114.101C114.599 31.0696 115.028 31.1715 115.386 31.3754C115.744 31.5775 116.018 31.8684 116.208 32.2479C116.401 32.6257 116.497 33.079 116.497 33.6076C116.497 34.1379 116.4 34.5936 116.206 34.9748C116.014 35.356 115.735 35.6493 115.371 35.8548C115.006 36.0586 114.565 36.1605 114.048 36.1605ZM113.168 35.4894H114.006C114.394 35.4894 114.716 35.4164 114.973 35.2706C115.23 35.1231 115.422 34.9102 115.55 34.6318C115.677 34.3517 115.741 34.0103 115.741 33.6076C115.741 33.2082 115.677 32.8693 115.55 32.5909C115.424 32.3125 115.236 32.1012 114.985 31.957C114.735 31.8129 114.425 31.7408 114.053 31.7408H113.168V35.4894Z" fill="white"/>
<path d="M111.072 31.0696V36.1605H110.303V31.0696H111.072Z" fill="white"/>
<path d="M105.582 36.1605V31.0696H107.396C107.791 31.0696 108.118 31.1376 108.378 31.2734C108.64 31.4093 108.836 31.5974 108.965 31.8377C109.094 32.0764 109.159 32.3523 109.159 32.6655C109.159 32.977 109.093 33.2513 108.962 33.4883C108.833 33.7236 108.638 33.9067 108.376 34.0377C108.116 34.1686 107.788 34.234 107.394 34.234H106.019V33.5728H107.324C107.573 33.5728 107.775 33.5372 107.931 33.4659C108.088 33.3947 108.203 33.2911 108.276 33.1552C108.349 33.0193 108.386 32.8561 108.386 32.6655C108.386 32.4733 108.348 32.3067 108.274 32.1658C108.201 32.025 108.086 31.9173 107.928 31.8427C107.773 31.7665 107.568 31.7283 107.314 31.7283H106.35V36.1605H105.582ZM108.095 33.8636L109.353 36.1605H108.478L107.245 33.8636H108.095Z" fill="white"/>
<path d="M100.792 36.1605V31.0696H102.656C103.017 31.0696 103.316 31.1293 103.553 31.2486C103.79 31.3662 103.968 31.5262 104.085 31.7283C104.203 31.9289 104.262 32.1551 104.262 32.407C104.262 32.6191 104.223 32.7981 104.145 32.9439C104.067 33.0881 103.963 33.2041 103.832 33.2919C103.703 33.3781 103.56 33.4411 103.404 33.4808V33.5305C103.573 33.5388 103.738 33.5935 103.899 33.6946C104.061 33.794 104.196 33.9357 104.302 34.1197C104.408 34.3036 104.461 34.5274 104.461 34.7908C104.461 35.051 104.399 35.2847 104.277 35.4918C104.156 35.6973 103.969 35.8606 103.715 35.9815C103.461 36.1009 103.137 36.1605 102.743 36.1605H100.792ZM101.56 35.5018H102.668C103.036 35.5018 103.3 35.4305 103.459 35.288C103.618 35.1455 103.698 34.9673 103.698 34.7536C103.698 34.5928 103.657 34.4453 103.576 34.3111C103.495 34.1769 103.379 34.07 103.228 33.9904C103.079 33.9109 102.901 33.8711 102.696 33.8711H101.56V35.5018ZM101.56 33.272H102.589C102.761 33.272 102.916 33.2389 103.054 33.1726C103.193 33.1063 103.303 33.0135 103.384 32.8942C103.467 32.7732 103.509 32.6307 103.509 32.4666C103.509 32.2562 103.435 32.0797 103.287 31.9372C103.14 31.7946 102.914 31.7234 102.609 31.7234H101.56V33.272Z" fill="white"/>
<path d="M94.568 36.1605V31.0696H95.3361V35.4993H97.6429V36.1605H94.568Z" fill="white"/>
<path d="M89.8867 36.1605H89.0714L90.9034 31.0696H91.7908L93.6228 36.1605H92.8075L91.3682 31.9943H91.3284L89.8867 36.1605ZM90.0234 34.1669H92.6683V34.8132H90.0234V34.1669Z" fill="white"/>
<path d="M85.0376 31.7308V31.0696H88.9776V31.7308H87.3891V36.1605H86.6235V31.7308H85.0376Z" fill="white"/>
<path d="M83.96 31.0696V36.1605H83.1919V31.0696H83.96Z" fill="white"/>
<path d="M81.1841 32.6779C81.136 32.5271 81.0714 32.392 80.9902 32.2727C80.9106 32.1518 80.8153 32.049 80.7043 31.9645C80.5933 31.8783 80.4665 31.8129 80.324 31.7681C80.1831 31.7234 80.0282 31.701 79.8591 31.701C79.5724 31.701 79.3139 31.7747 79.0836 31.9222C78.8532 32.0697 78.6709 32.286 78.5367 32.571C78.4041 32.8544 78.3378 33.2016 78.3378 33.6126C78.3378 34.0252 78.4049 34.3741 78.5392 34.6591C78.6734 34.9441 78.8573 35.1604 79.091 35.3079C79.3247 35.4554 79.5907 35.5291 79.889 35.5291C80.1657 35.5291 80.4068 35.4728 80.6123 35.3601C80.8195 35.2474 80.9794 35.0883 81.0921 34.8828C81.2064 34.6757 81.2636 34.4321 81.2636 34.152L81.4625 34.1893H80.0058V33.5554H82.0068V34.1346C82.0068 34.5621 81.9157 34.9334 81.7334 35.2482C81.5528 35.5614 81.3025 35.8034 80.9827 35.9741C80.6645 36.1448 80.2999 36.2301 79.889 36.2301C79.4283 36.2301 79.0239 36.1241 78.6759 35.9119C78.3295 35.6998 78.0594 35.399 77.8655 35.0096C77.6716 34.6185 77.5747 34.1545 77.5747 33.6175C77.5747 33.2115 77.631 32.8469 77.7437 32.5238C77.8564 32.2006 78.0147 31.9264 78.2185 31.701C78.424 31.474 78.6651 31.3008 78.9419 31.1815C79.2203 31.0605 79.5244 31 79.8542 31C80.1292 31 80.3853 31.0406 80.6223 31.1218C80.8609 31.203 81.073 31.3182 81.2586 31.4673C81.4459 31.6165 81.6008 31.7938 81.7235 31.9993C81.8461 32.2031 81.929 32.4293 81.972 32.6779H81.1841Z" fill="white"/>
<path d="M76.4101 31.0696V36.1605H75.642V31.0696H76.4101Z" fill="white"/>
<path d="M72.0283 36.1605H70.3802V31.0696H72.0805C72.5793 31.0696 73.0077 31.1715 73.3656 31.3754C73.7236 31.5775 73.9978 31.8684 74.1884 32.2479C74.3807 32.6257 74.4768 33.079 74.4768 33.6076C74.4768 34.1379 74.3798 34.5936 74.1859 34.9748C73.9937 35.356 73.7153 35.6493 73.3507 35.8548C72.9861 36.0586 72.5453 36.1605 72.0283 36.1605ZM71.1483 35.4894H71.986C72.3738 35.4894 72.6961 35.4164 72.953 35.2706C73.2098 35.1231 73.4021 34.9102 73.5297 34.6318C73.6573 34.3517 73.7211 34.0103 73.7211 33.6076C73.7211 33.2082 73.6573 32.8693 73.5297 32.5909C73.4037 32.3125 73.2156 32.1012 72.9654 31.957C72.7152 31.8129 72.4044 31.7408 72.0332 31.7408H71.1483V35.4894Z" fill="white"/>
<path d="M63.5959 36.1605V31.0696H65.4105C65.805 31.0696 66.1322 31.1376 66.3924 31.2734C66.6543 31.4093 66.8498 31.5974 66.9791 31.8377C67.1083 32.0764 67.173 32.3523 67.173 32.6655C67.173 32.977 67.1075 33.2513 66.9766 33.4883C66.8473 33.7236 66.6518 33.9067 66.3899 34.0377C66.1298 34.1686 65.8025 34.234 65.4081 34.234H64.0334V33.5728H65.3385C65.587 33.5728 65.7892 33.5372 65.945 33.4659C66.1024 33.3947 66.2177 33.2911 66.2906 33.1552C66.3635 33.0193 66.3999 32.8561 66.3999 32.6655C66.3999 32.4733 66.3626 32.3067 66.288 32.1658C66.2151 32.025 66.0999 31.9173 65.9425 31.8427C65.7867 31.7665 65.5821 31.7283 65.3285 31.7283H64.364V36.1605H63.5959ZM66.109 33.8636L67.3669 36.1605H66.4919L65.2589 33.8636H66.109Z" fill="white"/>
<path d="M61.4987 31.0696H62.2693V34.418C62.2693 34.7743 62.1856 35.09 62.0182 35.3651C61.8508 35.6385 61.6155 35.8539 61.3122 36.0114C61.009 36.1671 60.6535 36.245 60.2458 36.245C59.8398 36.245 59.4852 36.1671 59.1819 36.0114C58.8786 35.8539 58.6433 35.6385 58.4759 35.3651C58.3086 35.09 58.2249 34.7743 58.2249 34.418V31.0696H58.993V34.3558C58.993 34.5862 59.0435 34.7908 59.1446 34.9698C59.2474 35.1488 59.3924 35.2897 59.5796 35.3924C59.7669 35.4935 59.989 35.544 60.2458 35.544C60.5044 35.544 60.7273 35.4935 60.9145 35.3924C61.1034 35.2897 61.2476 35.1488 61.347 34.9698C61.4481 34.7908 61.4987 34.5862 61.4987 34.3558V31.0696Z" fill="white"/>
<path d="M57.0572 33.6151C57.0572 34.1586 56.9578 34.6259 56.7589 35.017C56.5601 35.4065 56.2875 35.7064 55.9411 35.9169C55.5964 36.1257 55.2045 36.2301 54.7653 36.2301C54.3245 36.2301 53.9309 36.1257 53.5846 35.9169C53.2399 35.7064 52.9681 35.4057 52.7692 35.0146C52.5704 34.6235 52.4709 34.157 52.4709 33.6151C52.4709 33.0715 52.5704 32.605 52.7692 32.2156C52.9681 31.8245 53.2399 31.5245 53.5846 31.3157C53.9309 31.1052 54.3245 31 54.7653 31C55.2045 31 55.5964 31.1052 55.9411 31.3157C56.2875 31.5245 56.5601 31.8245 56.7589 32.2156C56.9578 32.605 57.0572 33.0715 57.0572 33.6151ZM56.2966 33.6151C56.2966 33.2008 56.2295 32.8519 56.0952 32.5685C55.9627 32.2835 55.7804 32.0681 55.5484 31.9222C55.318 31.7747 55.057 31.701 54.7653 31.701C54.472 31.701 54.2102 31.7747 53.9798 31.9222C53.7495 32.0681 53.5672 32.2835 53.433 32.5685C53.3004 32.8519 53.2341 33.2008 53.2341 33.6151C53.2341 34.0294 53.3004 34.379 53.433 34.6641C53.5672 34.9474 53.7495 35.1629 53.9798 35.3104C54.2102 35.4562 54.472 35.5291 54.7653 35.5291C55.057 35.5291 55.318 35.4562 55.5484 35.3104C55.7804 35.1629 55.9627 34.9474 56.0952 34.6641C56.2295 34.379 56.2966 34.0294 56.2966 33.6151Z" fill="white"/>
<path d="M47.5 31.0696H48.3725L49.7024 33.3839H49.7571L51.087 31.0696H51.9595L50.1126 34.1619V36.1605H49.3469V34.1619L47.5 31.0696Z" fill="white"/>
<path d="M4.64898 17.7839L1.15308 21.2798L4.64898 24.7757L8.14488 21.2798L4.64898 17.7839Z" fill="white"/>
<path d="M1.16931 21.2869L1.22081 18.9007L4.67131 15.4502V17.7849L1.16931 21.2869Z" fill="white"/>
<path d="M8.15634 21.2869L8.20784 19.0037L4.67151 15.4502V17.7849L8.15634 21.2869Z" fill="white"/>
<path d="M10.3349 23.4572L6.83899 26.9531L10.3349 30.449L13.8308 26.9531L10.3349 23.4572Z" fill="white"/>
<path d="M6.83435 26.9519L6.88585 24.5657L10.3364 21.1152V23.4499L6.83435 26.9519Z" fill="white"/>
<path d="M13.8386 26.9519L13.8901 24.6687L10.3365 21.1152V23.4499L13.8386 26.9519Z" fill="white"/>
<path d="M15.9833 29.1037L12.4874 32.5996L15.9833 36.0955L19.4792 32.5996L15.9833 29.1037Z" fill="white"/>
<path d="M12.4822 32.5998L12.5337 30.2137L15.9842 26.7632V29.0978L12.4822 32.5998Z" fill="white"/>
<path d="M19.4863 32.5998L19.5378 30.3167L15.9843 26.7632V29.0978L19.4863 32.5998Z" fill="white"/>
<path d="M10.388 12.0588L6.89209 15.5547L10.388 19.0506L13.8839 15.5547L10.388 12.0588Z" fill="white"/>
<path d="M6.88574 15.553L6.93724 13.1668L10.3877 9.71631V12.051L6.88574 15.553Z" fill="white"/>
<path d="M13.8898 15.553L13.9413 13.2698L10.3878 9.71631V12.051L13.8898 15.553Z" fill="white"/>
<path d="M16.0492 17.7326L12.5533 21.2285L16.0492 24.7244L19.5451 21.2285L16.0492 17.7326Z" fill="white"/>
<path d="M12.5682 21.2351L12.6197 18.8489L16.0702 15.3984V17.7331L12.5682 21.2351Z" fill="white"/>
<path d="M19.555 21.2351L19.6236 18.9519L16.0701 15.3984V17.7331L19.555 21.2351Z" fill="white"/>
<path d="M21.6974 23.3791L18.2015 26.875L21.6974 30.3709L25.1933 26.875L21.6974 23.3791Z" fill="white"/>
<path d="M18.2158 26.8659L18.2673 24.4797L21.7178 21.0464V23.3811L18.2158 26.8659Z" fill="white"/>
<path d="M25.2027 26.8659L25.2542 24.5999L21.7178 21.0464V23.3811L25.2027 26.8659Z" fill="white"/>
<path d="M16.1142 6.32196L12.6183 9.81786L16.1142 13.3138L19.6101 9.81786L16.1142 6.32196Z" fill="white"/>
<path d="M12.6195 9.8195L12.671 7.43333L16.1215 4V6.33467L12.6195 9.8195Z" fill="white"/>
<path d="M19.6236 9.8195L19.6751 7.5535L16.1216 4V6.33467L19.6236 9.8195Z" fill="white"/>
<path d="M21.7878 12.0075L18.2919 15.5034L21.7878 18.9993L25.2837 15.5034L21.7878 12.0075Z" fill="white"/>
<path d="M18.2845 15.5017L18.336 13.1155L21.7865 9.66504V11.9997L18.2845 15.5017Z" fill="white"/>
<path d="M25.2886 15.5017L25.3401 13.2185L21.7866 9.66504V11.9997L25.2886 15.5017Z" fill="white"/>
<path d="M27.436 17.6545L23.9401 21.1504L27.436 24.6463L30.9319 21.1504L27.436 17.6545Z" fill="white"/>
<path d="M23.9324 21.1497L23.9839 18.7635L27.4344 15.313V17.6477L23.9324 21.1497Z" fill="white"/>
<path d="M30.9363 21.1497L30.9878 18.8665L27.4343 15.313V17.6477L30.9363 21.1497Z" fill="white"/>
<path d="M4.64483 22.427L1.14893 25.9229L4.64482 29.4188L8.14072 25.9229L4.64483 22.427Z" fill="white"/>
<path d="M1.15271 25.9392L1.20421 23.553L4.65471 20.1025V22.4372L1.15271 25.9392Z" fill="white"/>
<path d="M8.15654 25.9392L8.20804 23.656L4.65454 20.1025V22.4372L8.15654 25.9392Z" fill="white"/>
<path d="M10.3719 16.7141L6.87598 20.21L10.3719 23.7059L13.8678 20.21L10.3719 16.7141Z" fill="white"/>
<path d="M6.86902 20.2053L6.93769 17.8192L10.371 14.3687V16.7033L6.86902 20.2053Z" fill="white"/>
<path d="M13.8731 20.2053L13.9246 17.9222L10.3711 14.3687V16.7033L13.8731 20.2053Z" fill="white"/>
<path d="M16.0982 10.9777L12.6023 14.4736L16.0982 17.9695L19.5941 14.4736L16.0982 10.9777Z" fill="white"/>
<path d="M12.6028 14.4718L12.6543 12.0857L16.1048 8.65234V10.987L12.6028 14.4718Z" fill="white"/>
<path d="M19.6067 14.4718L19.6582 12.2058L16.1047 8.65234V10.987L19.6067 14.4718Z" fill="white"/>
<path d="M21.7717 16.6633L18.2758 20.1592L21.7717 23.6551L25.2676 20.1592L21.7717 16.6633Z" fill="white"/>
<path d="M18.2849 20.154L18.3364 17.7679L21.7697 14.3174V16.652L18.2849 20.154Z" fill="white"/>
<path d="M25.2717 20.154L25.3232 17.8709L21.7697 14.3174V16.652L25.2717 20.154Z" fill="white"/>
<path d="M27.42 22.3103L23.9241 25.8062L27.42 29.3021L30.9159 25.8062L27.42 22.3103Z" fill="white"/>
<path d="M23.9329 25.802L23.9844 23.4158L27.4177 19.9653V22.3L23.9329 25.802Z" fill="white"/>
<path d="M30.9194 25.802L30.9709 23.5188L27.4174 19.9653V22.3L30.9194 25.802Z" fill="white"/>
<path d="M4.86162 27.9548L1.36572 31.4507L4.86162 34.9466L8.35752 31.4507L4.86162 27.9548Z" fill="white"/>
<path d="M1.35815 31.4495L1.40965 29.0633L4.86015 25.6128V27.9475L1.35815 31.4495Z" fill="white"/>
<path d="M8.36223 31.4495L8.41373 29.1663L4.86023 25.6128V27.9475L8.36223 31.4495Z" fill="white"/>
<path d="M10.5239 33.6271L7.02795 37.123L10.5239 40.6189L14.0198 37.123L10.5239 33.6271Z" fill="white"/>
<path d="M7.04028 37.1144L7.09178 34.7283L10.5422 31.2949V33.6296L7.04028 37.1144Z" fill="white"/>
<path d="M14.0272 37.1144L14.0959 34.8484L10.5424 31.2949V33.6296L14.0272 37.1144Z" fill="white"/>
<path d="M16.172 39.2741L12.6761 42.77L16.172 46.2659L19.6679 42.77L16.172 39.2741Z" fill="white"/>
<path d="M12.6884 42.7624L12.7399 40.3762L16.1904 36.9429V39.2604L12.6884 42.7624Z" fill="white"/>
<path d="M19.675 42.7624L19.7265 40.4792L16.1902 36.9429V39.2604L19.675 42.7624Z" fill="white"/>
<path d="M10.5887 22.2175L7.09277 25.7134L10.5887 29.2093L14.0846 25.7134L10.5887 22.2175Z" fill="white"/>
<path d="M7.09192 25.716L7.14342 23.3298L10.594 19.8965V22.214L7.09192 25.716Z" fill="white"/>
<path d="M14.0959 25.716L14.1474 23.4328L10.5939 19.8965V22.214L14.0959 25.716Z" fill="white"/>
<path d="M16.262 27.904L12.7661 31.3999L16.262 34.8958L19.7579 31.3999L16.262 27.904Z" fill="white"/>
<path d="M12.757 31.3977L12.8085 29.0115L16.259 25.561V27.8957L12.757 31.3977Z" fill="white"/>
<path d="M19.7609 31.3977L19.8124 29.1145L16.2589 25.561V27.8957L19.7609 31.3977Z" fill="white"/>
<path d="M21.9101 33.551L18.4142 37.0469L21.9101 40.5428L25.406 37.0469L21.9101 33.551Z" fill="white"/>
<path d="M18.4048 37.0456L18.4563 34.6595L21.9068 31.209V33.5436L18.4048 37.0456Z" fill="white"/>
<path d="M25.4087 37.0456L25.4602 34.7625L21.9067 31.209V33.5436L25.4087 37.0456Z" fill="white"/>
<path d="M16.3151 16.5051L12.8192 20.001L16.3151 23.4969L19.811 20.001L16.3151 16.5051Z" fill="white"/>
<path d="M12.8083 19.9993L12.877 17.6131L16.3103 14.1626V16.4973L12.8083 19.9993Z" fill="white"/>
<path d="M19.8124 19.9993L19.8639 17.7161L16.3104 14.1626V16.4973L19.8124 19.9993Z" fill="white"/>
<path d="M21.9888 22.1662L18.4929 25.6621L21.9888 29.158L25.4847 25.6621L21.9888 22.1662Z" fill="white"/>
<path d="M18.4905 25.6643L18.542 23.2781L21.9925 19.8276V22.1623L18.4905 25.6643Z" fill="white"/>
<path d="M25.4947 25.6643L25.5462 23.3811L21.9927 19.8276V22.1623L25.4947 25.6643Z" fill="white"/>
<path d="M27.6369 27.8142L24.141 31.3101L27.6369 34.806L31.1328 31.3101L27.6369 27.8142Z" fill="white"/>
<path d="M24.1384 31.3122L24.1899 28.9261L27.6404 25.4756V27.8103L24.1384 31.3122Z" fill="white"/>
<path d="M31.1424 31.3122L31.1939 29.0291L27.6404 25.4756V27.8103L31.1424 31.3122Z" fill="white"/>
<path d="M39.4512 0H39.0735V47.9636H39.4512V0Z" fill="white"/>
<path d="M47.1586 11.1069H52.549C56.8921 11.1069 59.8963 14.0939 59.8963 17.9736V18.0079C59.8963 21.9048 56.8921 24.9261 52.549 24.9261H47.1586V11.1069ZM52.549 22.1794C55.0381 22.1794 56.7205 20.4971 56.7205 18.0594V18.0251C56.7205 15.5703 55.0381 13.8536 52.549 13.8536H50.1971V22.1794H52.549Z" fill="white"/>
<path d="M62.351 10.5059H65.5096V13.1667H62.351V10.5059ZM62.4197 14.3512H65.4237V24.943H62.4197V14.3512Z" fill="white"/>
<path d="M68.3079 27.0201L69.3379 24.7713C70.4194 25.3893 71.5181 25.7326 72.9086 25.7326C74.9686 25.7326 75.9299 24.7369 75.9299 22.8486V22.3336C75.0373 23.3979 74.0759 24.0503 72.4794 24.0503C70.0074 24.0503 67.7758 22.2478 67.7758 19.1063V19.0719C67.7758 15.9133 70.0418 14.1279 72.4794 14.1279C74.1103 14.1279 75.0888 14.8146 75.8956 15.7073V14.3168H78.8998V22.5053C78.8998 24.3936 78.4534 25.7841 77.5608 26.6768C76.5651 27.6724 75.0544 28.1016 72.9944 28.1016C71.2778 28.1359 69.6469 27.7411 68.3079 27.0201ZM75.9299 19.1234V19.0891C75.9299 17.6471 74.7969 16.6343 73.3378 16.6343C71.8786 16.6343 70.7628 17.6471 70.7628 19.0891V19.1234C70.7628 20.5826 71.8614 21.5783 73.3378 21.5783C74.8141 21.5783 75.9299 20.5654 75.9299 19.1234Z" fill="white"/>
<path d="M81.6462 10.5059H84.8049V13.1667H81.6462V10.5059ZM81.7149 14.3512H84.719V24.943H81.7149V14.3512Z" fill="white"/>
<path d="M87.0366 19.6898V19.6555C87.0366 16.6342 89.3541 14.145 92.5815 14.145C94.5728 14.145 95.8259 14.8145 96.8044 15.9304L94.9676 17.9045C94.2981 17.2007 93.6286 16.7372 92.5643 16.7372C91.0708 16.7372 89.9893 18.059 89.9893 19.6212V19.6555C89.9893 21.2692 91.0365 22.5738 92.6673 22.5738C93.6801 22.5738 94.3668 22.1447 95.0878 21.4408L96.8388 23.2262C95.8088 24.3592 94.6243 25.166 92.5128 25.166C89.3541 25.166 87.0366 22.7112 87.0366 19.6898Z" fill="white"/>
<path d="M98.0062 19.6898V19.6555C98.0062 16.617 100.461 14.145 103.757 14.145C107.036 14.145 109.456 16.5655 109.456 19.6212V19.6555C109.456 22.694 107.001 25.166 103.705 25.166C100.444 25.166 98.0062 22.7455 98.0062 19.6898ZM106.504 19.6898V19.6555C106.504 18.0934 105.371 16.7372 103.723 16.7372C102.006 16.7372 100.976 18.059 100.976 19.6212V19.6555C100.976 21.2177 102.109 22.5738 103.757 22.5738C105.474 22.5738 106.504 21.252 106.504 19.6898Z" fill="white"/>
<path d="M111.637 14.351H114.641V15.8445C115.328 14.9519 116.237 14.145 117.765 14.145C119.156 14.145 120.186 14.763 120.752 15.8274C121.679 14.7459 122.778 14.145 124.22 14.145C126.452 14.145 127.791 15.484 127.791 18.0419V24.9257H124.786V19.0203C124.786 17.5955 124.151 16.8745 123.035 16.8745C121.902 16.8745 121.216 17.6127 121.216 19.0203V24.9257H118.212V19.0203C118.212 17.5955 117.576 16.8745 116.461 16.8745C115.328 16.8745 114.641 17.6127 114.641 19.0203V24.9257H111.637V14.351Z" fill="white"/>
</g>
<defs>
<clipPath id="clip0_534_12800">
<rect width="128" height="48" fill="white" transform="translate(0.5)"/>
</clipPath>
</defs>
</svg>
