<svg width="43" height="47" viewBox="0 0 43 47" fill="none" xmlns="http://www.w3.org/2000/svg">
<path fill-rule="evenodd" clip-rule="evenodd" d="M28.6128 43.8602C32.7187 42.7107 37.0174 42.1308 41.1874 41.5996C42.0856 41.4882 42.9195 42.1097 42.9836 42.9853C43.1119 43.8615 42.47 44.6628 41.636 44.7742C37.5943 45.2855 33.4246 45.8328 29.5112 46.9394C28.6772 47.1794 27.7787 46.6853 27.522 45.8353C27.2654 44.986 27.7788 44.1008 28.6128 43.8602Z" fill="#020315"/>
<path fill-rule="evenodd" clip-rule="evenodd" d="M16.167 27.563C22.7749 20.8356 30.2168 14.9741 36.6964 8.06623C37.2737 7.42107 38.3002 7.38651 38.9418 7.98878C39.5833 8.5917 39.6472 9.60551 39.0057 10.2507C32.5261 17.1784 25.0842 23.0591 18.4763 29.8063C17.8347 30.4361 16.8085 30.4451 16.167 29.8255C15.5896 29.2066 15.5254 28.1928 16.167 27.563Z" fill="#020315"/>
<path fill-rule="evenodd" clip-rule="evenodd" d="M3.785 1.68698C3.59254 5.53743 3.40045 9.38788 3.20799 13.239C3.20799 14.1209 2.43776 14.8019 1.5396 14.7591C0.641441 14.7155 0.000273705 13.9648 0.000273705 13.0822C0.192737 9.22532 0.384824 5.3691 0.577287 1.51289C0.641441 0.630919 1.41142 -0.0455981 2.30958 0.0024045C3.14359 0.0504072 3.84916 0.805651 3.785 1.68698Z" fill="#020315"/>
</svg>
