<svg width="24" height="24" viewBox="0 0 24 24" fill="none" xmlns="http://www.w3.org/2000/svg">
<path d="M14.2032 17.6319C13.5957 17.0294 12.8339 17.0294 12.2264 17.6319C11.7634 18.09 11.3003 18.5481 10.8472 19.0162C10.7227 19.1456 10.6181 19.1705 10.4638 19.0859C10.165 18.9216 9.84635 18.7921 9.55756 18.6128C8.21814 17.7714 7.09282 16.6859 6.09697 15.461C5.60403 14.8535 5.16087 14.2062 4.85714 13.4743C4.79739 13.3249 4.80237 13.2303 4.92685 13.1108C5.38992 12.6626 5.84303 12.2045 6.29614 11.7465C6.92851 11.1091 6.92851 10.3622 6.29117 9.7199C5.93266 9.35641 5.56917 8.99293 5.20569 8.63442C4.83224 8.26098 4.46378 7.88753 4.08536 7.51409C3.47291 6.91658 2.71606 6.9116 2.10361 7.51409C1.64054 7.97218 1.18743 8.44521 0.719381 8.89334C0.281207 9.3116 0.0571403 9.81948 0.012327 10.417C-0.0573825 11.383 0.176642 12.2992 0.510252 13.1904C1.19739 15.0328 2.23805 16.666 3.4978 18.1697C5.20071 20.2012 7.2422 21.8045 9.62726 22.9647C10.6978 23.4875 11.8132 23.8859 13.0231 23.9506C13.8547 23.9954 14.5816 23.7863 15.1592 23.139C15.5576 22.6958 16.0007 22.2925 16.4239 21.8693C17.0464 21.2419 17.0513 20.4801 16.4339 19.8577C15.687 19.1108 14.9451 18.3738 14.2032 17.6319Z" fill="#00BBD3"/>
<path fill-rule="evenodd" clip-rule="evenodd" d="M21.7468 2.21128C18.7991 -0.736441 14.0239 -0.736441 11.0762 2.21128C8.23805 5.04945 8.13349 9.58057 10.7576 12.5432L10.8322 12.608C10.5484 13.2254 10.0555 13.9822 9.27872 14.3656C9.0198 14.4901 9.07955 14.8735 9.36337 14.9183C10.2148 15.0528 11.4347 14.9034 12.57 14.042L12.5849 14.0569C15.4779 15.7598 19.2571 15.3665 21.7418 12.8818C24.6945 9.9341 24.6945 5.15899 21.7468 2.21128ZM16.7327 2.88845C17.4098 2.89343 17.9526 3.44613 17.9476 4.13327C17.9426 4.81543 17.3899 5.36812 16.7277 5.36314C16.0405 5.35816 15.4878 4.79551 15.4928 4.11335C15.4978 3.43119 16.0505 2.88348 16.7327 2.88845ZM18.3111 11.4727C18.3858 11.393 18.4555 11.2835 18.4804 11.1789C18.5252 10.9947 18.3758 10.8702 18.2115 10.9349C18.1475 10.958 18.0887 10.9916 18.0305 11.0248C17.9755 11.0563 17.921 11.0874 17.863 11.1092C17.7136 11.164 17.5592 11.2187 17.4049 11.2387C17.2206 11.2586 17.0812 11.159 17.0364 10.9748C17.0015 10.8403 16.9816 10.6909 16.9966 10.5515C17.0228 10.298 17.072 10.0407 17.1207 9.78621C17.1275 9.7508 17.1343 9.71544 17.141 9.68016C17.2002 9.35255 17.2601 9.02563 17.3199 8.69914C17.4211 8.14731 17.522 7.59672 17.619 7.04613C17.6638 6.80713 17.7036 6.56812 17.6986 6.32912C17.6887 6.04032 17.5194 5.90588 17.2306 5.90588H16.0306H14.9003C14.8057 5.90588 14.7111 5.90588 14.6215 5.9258C14.4472 5.96065 14.3625 6.0453 14.3476 6.17974C14.3327 6.3092 14.4024 6.43368 14.5617 6.48845C14.6574 6.52292 14.7649 6.53677 14.8706 6.55038C14.9024 6.55447 14.934 6.55854 14.965 6.56314C15.2837 6.60796 15.3833 6.7175 15.3833 7.04115C15.3833 7.09094 15.3833 7.14074 15.3733 7.19053C15.3315 7.42903 15.2892 7.66802 15.2469 7.90718C15.1531 8.43695 15.0592 8.96762 14.97 9.49592C14.8953 9.93908 14.8256 10.3822 14.7659 10.8254C14.6762 11.4777 15.2986 12.0851 15.7916 12.1548C16.0854 12.1997 16.3891 12.2096 16.6878 12.2046C17.3302 12.1947 17.863 11.9258 18.3111 11.4727Z" fill="#00BBD3"/>
<path fill-rule="evenodd" clip-rule="evenodd" d="M17.9477 4.13327C17.9527 3.44614 17.4099 2.89344 16.7327 2.88846C16.0506 2.88348 15.4979 3.4312 15.4929 4.11336C15.4879 4.79552 16.0406 5.35817 16.7278 5.36315C17.39 5.36813 17.9427 4.81543 17.9477 4.13327ZM18.3112 11.4727C18.3859 11.393 18.4556 11.2835 18.4805 11.1789C18.5253 10.9947 18.3759 10.8702 18.2116 10.9349C18.1476 10.958 18.0888 10.9916 18.0306 11.0248C17.9756 11.0563 17.9211 11.0874 17.863 11.1092C17.7137 11.164 17.5593 11.2188 17.4049 11.2387C17.2207 11.2586 17.0813 11.159 17.0365 10.9748C17.0016 10.8403 16.9817 10.691 16.9966 10.5515C17.0229 10.298 17.0721 10.0407 17.1208 9.78623C17.1276 9.75082 17.1343 9.71545 17.141 9.68016C17.2003 9.35256 17.2602 9.02564 17.32 8.69916C17.4212 8.14733 17.5221 7.59673 17.619 7.04614C17.6639 6.80713 17.7037 6.56813 17.6987 6.32913C17.6888 6.04033 17.5195 5.90589 17.2307 5.90589H16.0307H14.9004C14.8058 5.90589 14.7112 5.90589 14.6215 5.92581C14.4473 5.96066 14.3626 6.04531 14.3477 6.17975C14.3327 6.30921 14.4024 6.43369 14.5618 6.48846C14.6575 6.52292 14.765 6.53677 14.8707 6.55039C14.9025 6.55448 14.934 6.55855 14.9651 6.56315C15.2838 6.60796 15.3834 6.71751 15.3834 7.04116C15.3834 7.09095 15.3834 7.14074 15.3734 7.19054C15.3316 7.42904 15.2893 7.66804 15.247 7.90721C15.1532 8.43697 15.0593 8.96763 14.9701 9.49593C14.8954 9.93908 14.8257 10.3822 14.7659 10.8254C14.6763 11.4777 15.2987 12.0851 15.7917 12.1549C16.0854 12.1997 16.3892 12.2096 16.6879 12.2046C17.3302 12.1947 17.863 11.9258 18.3112 11.4727Z" fill="#E0FBFF"/>
</svg>
