<svg width="200" height="50" viewBox="0 0 200 50" fill="none" xmlns="http://www.w3.org/2000/svg">
<g clip-path="url(#clip0_534_12794)">
<path d="M197.7 5.45499C197.7 5.45499 191.171 -3.97966 184.842 7.06361H150.705V44.4181H194.678C194.678 44.4181 198.424 43.3049 198.318 35.3787C198.212 27.4525 197.7 5.45499 197.7 5.45499ZM179.649 38.9967H156.984V13.949H179.649V38.9967Z" fill="white"/>
<path d="M192.079 4.02452e-08C190.378 -0.000177461 188.729 0.586802 187.41 1.66178C186.092 2.73676 185.185 4.23385 184.843 5.90014H150.588C150.197 5.90014 149.822 6.05553 149.545 6.33216C149.269 6.60878 149.113 6.98396 149.113 7.37517V44.7464C149.113 45.1376 149.269 45.5128 149.545 45.7894C149.822 46.066 150.197 46.2214 150.588 46.2214H192.079C194.035 46.2185 195.91 45.4388 197.292 44.0538C198.674 42.6687 199.45 40.7917 199.448 38.8351V7.37517C199.447 5.42057 198.67 3.54636 197.288 2.16373C195.907 0.781092 194.033 0.0029476 192.079 4.02452e-08ZM187.654 7.37517C187.632 6.78122 187.731 6.18912 187.944 5.63418C188.157 5.07924 188.479 4.57285 188.892 4.14521C189.305 3.71758 189.799 3.37747 190.346 3.14517C190.893 2.91287 191.482 2.79315 192.076 2.79315C192.67 2.79315 193.258 2.91287 193.805 3.14517C194.352 3.37747 194.847 3.71758 195.26 4.14521C195.673 4.57285 195.995 5.07924 196.208 5.63418C196.42 6.18912 196.519 6.78122 196.498 7.37517V32.9406C195.224 31.9801 193.672 31.4606 192.076 31.4606C190.48 31.4606 188.928 31.9801 187.654 32.9406V7.37517ZM192.079 43.2602H152.063V8.8502H184.703V38.8351C184.703 39.2263 184.859 39.6015 185.135 39.8781C185.412 40.1548 185.787 40.3102 186.178 40.3102C186.57 40.3102 186.945 40.1548 187.222 39.8781C187.498 39.6015 187.654 39.2263 187.654 38.8351C187.654 37.9599 187.913 37.1044 188.399 36.3767C188.886 35.649 189.577 35.0818 190.385 34.7469C191.194 34.4119 192.084 34.3243 192.942 34.4951C193.8 34.6658 194.589 35.0873 195.208 35.7061C195.827 36.325 196.248 37.1135 196.419 37.9718C196.589 38.8302 196.502 39.72 196.167 40.5285C195.832 41.3371 195.265 42.0282 194.537 42.5145C193.809 43.0007 192.954 43.2602 192.079 43.2602Z" fill="white"/>
<path d="M180.178 11.8003H156.589C156.395 11.7996 156.203 11.8372 156.023 11.9111C155.844 11.985 155.681 12.0936 155.544 12.2307C155.407 12.3678 155.298 12.5307 155.224 12.71C155.15 12.8893 155.113 13.0814 155.114 13.2753V38.8352C155.118 39.2235 155.275 39.5944 155.551 39.8674C155.828 40.1404 156.2 40.2935 156.589 40.2935H180.178C180.569 40.2935 180.944 40.1381 181.221 39.8615C181.498 39.5849 181.653 39.2097 181.653 38.8185V13.2753C181.654 13.0814 181.616 12.8893 181.542 12.71C181.468 12.5307 181.36 12.3678 181.223 12.2307C181.086 12.0936 180.923 11.985 180.743 11.9111C180.564 11.8372 180.372 11.7996 180.178 11.8003ZM173.788 37.3601V34.8999C173.8 34.6989 173.771 34.4976 173.703 34.3082C173.635 34.1189 173.528 33.9455 173.39 33.7988C173.252 33.6522 173.086 33.5353 172.901 33.4554C172.716 33.3755 172.517 33.3343 172.316 33.3343C172.114 33.3343 171.915 33.3755 171.73 33.4554C171.546 33.5353 171.379 33.6522 171.241 33.7988C171.103 33.9455 170.997 34.1189 170.928 34.3082C170.86 34.4976 170.831 34.6989 170.844 34.8999V37.3601H158.041V26.5451H162.962V29.985C162.961 30.1784 162.999 30.3701 163.072 30.549C163.146 30.7279 163.254 30.8906 163.39 31.0276C163.527 31.1647 163.689 31.2734 163.868 31.3476C164.046 31.4218 164.238 31.46 164.431 31.46H167.381C167.773 31.46 168.148 31.3046 168.424 31.028C168.701 30.7513 168.856 30.3762 168.856 29.985C168.856 29.5938 168.701 29.2186 168.424 28.942C168.148 28.6653 167.773 28.5099 167.381 28.5099H165.906V20.1607C165.919 19.9597 165.89 19.7584 165.821 19.569C165.753 19.3797 165.647 19.2063 165.509 19.0596C165.371 18.913 165.204 18.7961 165.019 18.7162C164.835 18.6363 164.635 18.5951 164.434 18.5951C164.233 18.5951 164.034 18.6363 163.849 18.7162C163.664 18.7961 163.497 18.913 163.36 19.0596C163.222 19.2063 163.115 19.3797 163.047 19.569C162.978 19.7584 162.949 19.9597 162.962 20.1607V23.595H158.041V14.7504H178.692V23.595H175.742V19.1699C175.742 18.7787 175.586 18.4035 175.31 18.1269C175.033 17.8503 174.658 17.6949 174.267 17.6949H171.317C170.925 17.6949 170.55 17.8503 170.274 18.1269C169.997 18.4035 169.842 18.7787 169.842 19.1699C169.842 19.5611 169.997 19.9363 170.274 20.2129C170.55 20.4895 170.925 20.6449 171.317 20.6449H172.792V23.595H170.331C169.94 23.595 169.565 23.7504 169.288 24.027C169.012 24.3037 168.856 24.6788 168.856 25.07C168.856 25.4612 169.012 25.8364 169.288 26.113C169.565 26.3897 169.94 26.5451 170.331 26.5451H178.681V37.3601H173.788Z" fill="white"/>
<path d="M1.02745 14.9888H10.2963C15.0293 14.9888 17.3958 16.8185 17.3958 20.4778C17.3958 22.4937 16.3879 24.0276 14.372 25.0794C15.6648 25.4081 16.6727 26.0106 17.3958 26.8871C18.1408 27.7636 18.5133 28.903 18.5133 30.3054C18.5133 32.4309 17.7902 34.0524 16.344 35.1699C14.9198 36.2874 12.8381 36.8462 10.0991 36.8462H0.863098V34.1839L1.94775 34.0853C2.58321 34.0195 2.90093 33.7128 2.90093 33.165V17.8812L1.02745 17.7826V14.9888ZM6.91088 26.8871V33.7566H10.0005C12.8491 33.7566 14.2734 32.5952 14.2734 30.2726C14.2734 29.1769 13.9118 28.3443 13.1887 27.7746C12.4875 27.1829 11.4796 26.8871 10.1648 26.8871H6.91088ZM6.91088 18.0127V23.9619H9.34308C10.7017 23.9619 11.6987 23.688 12.3341 23.1402C12.9915 22.5704 13.3202 21.7816 13.3202 20.7736C13.3202 19.7657 12.9915 19.0535 12.3341 18.6372C11.6987 18.2209 10.7784 18.0127 9.57318 18.0127H6.91088ZM26.4859 13.4112V34.1181L28.3594 34.2167V36.8462H20.5368V34.3482L21.6214 34.2496C22.2569 34.1839 22.5746 33.8333 22.5746 33.1978V16.9938C22.5746 16.5117 22.3007 16.2488 21.7529 16.205L20.6025 16.1392V13.4112H26.4859ZM37.9521 34.4468C40.3405 34.4468 41.5347 32.5185 41.5347 28.662C41.5347 26.7118 41.2608 25.2328 40.713 24.2248C40.1871 23.2168 39.2887 22.7129 38.0178 22.7129C36.7688 22.7129 35.8485 23.1949 35.2569 24.1591C34.6652 25.1232 34.3694 26.4379 34.3694 28.1033C34.3694 31.1929 34.9391 33.1321 36.0786 33.9209C36.5826 34.2715 37.2071 34.4468 37.9521 34.4468ZM30.3924 28.5634C30.3924 26.9419 30.6334 25.5395 31.1155 24.3563C31.5975 23.1511 32.244 22.2308 33.0547 21.5953C34.6105 20.4121 36.3306 19.8205 38.215 19.8205C39.5297 19.8205 40.6363 20.0396 41.5347 20.4778C42.455 20.8942 43.1672 21.3872 43.6711 21.9569C44.197 22.5047 44.6353 23.3154 44.9859 24.3891C45.3584 25.4409 45.5446 26.6899 45.5446 28.1361C45.5446 31.16 44.8106 33.4498 43.3424 35.0056C41.8743 36.5613 39.9899 37.3392 37.6891 37.3392C35.4103 37.3392 33.6244 36.6052 32.3316 35.137C31.0388 33.647 30.3924 31.4558 30.3924 28.5634ZM51.7344 28.3991C51.7344 30.2616 52.085 31.7078 52.7861 32.7377C53.4873 33.7675 54.4953 34.2825 55.81 34.2825C57.1467 34.2825 58.4614 33.8114 59.7542 32.8691L61.1675 35.4C59.6118 36.6709 57.6616 37.3063 55.317 37.3063C52.9724 37.3063 51.1208 36.5723 49.7623 35.1042C48.4256 33.6142 47.7573 31.4229 47.7573 28.5305C47.7573 25.6381 48.5242 23.4688 50.0581 22.0226C51.6138 20.5545 53.3559 19.8205 55.2841 19.8205C57.2343 19.8205 59.0421 20.2697 60.7074 21.1681V25.4409L57.6835 25.671V24.0933C57.6835 23.5017 57.4644 23.1402 57.0261 23.0087C56.6098 22.8553 56.1716 22.7786 55.7114 22.7786C53.06 22.7786 51.7344 24.6521 51.7344 28.3991ZM65.1058 33.165V17.1581C65.1058 16.8075 65.0401 16.5665 64.9086 16.435C64.799 16.3036 64.5909 16.2269 64.2841 16.205L63.1337 16.1392V13.4112H68.9843V27.6431C70.1894 27.5335 71.2412 27.161 72.1396 26.5256C73.038 25.8901 73.6515 25.0575 73.9802 24.0276C74.046 23.8085 74.0788 23.6332 74.0788 23.5017C74.0788 23.1292 73.8707 22.9429 73.4543 22.9429L72.2053 22.8772V20.3135H79.0091V22.9758L77.4314 23.0415C77.1465 25.2766 76.1824 27.0405 74.539 28.3333L77.7601 34.1181L79.765 34.2167V36.8462H74.9663L71.2193 30.0096C70.4962 30.2068 69.7512 30.3602 68.9843 30.4698V34.1181H69.0171L70.8906 34.2167V36.8462H63.068V34.3482L64.1526 34.2496C64.4813 34.2058 64.7224 34.1181 64.8757 33.9867C65.0291 33.8333 65.1058 33.5594 65.1058 33.165ZM82.4821 33.165L87.7738 17.8484L85.7031 17.6512V14.9888H93.23L99.935 33.9538H99.968L101.841 34.0524V36.8462H93.3614V34.1839L94.61 34.0853C94.983 34.0414 95.235 33.9538 95.366 33.8223C95.498 33.6908 95.509 33.4498 95.399 33.0992L94.709 31.0614H87.0179L86.0318 33.9538L88.0039 34.0524V36.8462H80.4114V34.1839L81.496 34.0853C81.9562 34.0414 82.2848 33.7347 82.4821 33.165ZM90.8634 18.6701L87.8067 28.0375H93.92L90.962 18.6701H90.8634ZM105.132 33.165V24.0605C105.132 23.7099 105.066 23.4688 104.935 23.3374C104.825 23.184 104.617 23.0963 104.31 23.0744L102.93 22.9758V20.3135H108.484V22.7786C108.879 21.924 109.492 21.2228 110.325 20.675C111.158 20.1053 112.111 19.8205 113.185 19.8205C114.28 19.8205 115.321 20.0615 116.307 20.5436V25.4409L113.25 25.671V24.1591C113.25 23.7208 113.141 23.4469 112.922 23.3374C112.681 23.2278 112.385 23.173 112.034 23.173C111.158 23.173 110.435 23.4907 109.865 24.1262C109.317 24.7397 109.043 25.5286 109.043 26.4927V34.1181L111.903 34.2496V36.8462H103.094V34.3482L104.179 34.2496C104.507 34.2058 104.748 34.1181 104.902 33.9867C105.055 33.8333 105.132 33.5594 105.132 33.165ZM121.925 16.8295H124.061V20.3135H128.433L128.104 23.0744H124.061V31.7188C124.061 32.6829 124.236 33.3622 124.587 33.7566C124.938 34.1291 125.474 34.3153 126.198 34.3153C126.943 34.3153 127.688 34.0853 128.433 33.6251L129.419 36.156C128.323 36.9229 126.932 37.3063 125.244 37.3063C124.258 37.3063 123.426 37.1749 122.746 36.9119C122.067 36.6709 121.563 36.397 121.234 36.0902C120.906 35.7835 120.654 35.3343 120.478 34.7426C120.303 34.151 120.205 33.6908 120.183 33.3622C120.161 33.0116 120.15 32.5076 120.15 31.8502V23.0744H117.816L118.145 20.675C119.175 20.5874 119.953 20.2258 120.478 19.5904C121.004 18.933 121.486 18.0127 121.925 16.8295Z" fill="white"/>
<path d="M20.0578 41.9367L18.4662 47.3062H17.4696L16.3416 43.2424L15.1441 47.3062L14.1552 47.3139L12.6332 41.9367H13.5681L14.6806 46.3095L15.8858 41.9367H16.8747L17.995 46.2863L19.1152 41.9367H20.0578ZM24.6857 45.0734C24.6857 45.2331 24.6754 45.3773 24.6548 45.506H21.4022C21.428 45.846 21.5542 46.1189 21.7808 46.325C22.0074 46.531 22.2856 46.634 22.6152 46.634C23.0891 46.634 23.4238 46.4357 23.6196 46.0391H24.5698C24.4411 46.4306 24.2067 46.7525 23.8668 47.0048C23.532 47.2521 23.1148 47.3757 22.6152 47.3757C22.2083 47.3757 21.8426 47.2856 21.5181 47.1053C21.1988 46.9199 20.9464 46.6623 20.761 46.3327C20.5807 45.9979 20.4906 45.6116 20.4906 45.1738C20.4906 44.736 20.5782 44.3523 20.7533 44.0227C20.9335 43.6879 21.1833 43.4304 21.5027 43.2501C21.8272 43.0698 22.198 42.9797 22.6152 42.9797C23.0169 42.9797 23.3749 43.0672 23.6891 43.2424C24.0033 43.4175 24.2479 43.6647 24.423 43.984C24.5982 44.2982 24.6857 44.6613 24.6857 45.0734ZM23.7664 44.7953C23.7612 44.4708 23.6453 44.2107 23.4187 44.0149C23.1921 43.8192 22.9114 43.7214 22.5766 43.7214C22.2727 43.7214 22.0126 43.8192 21.7963 44.0149C21.5799 44.2055 21.4512 44.4656 21.41 44.7953H23.7664ZM29.1045 47.3757C28.7698 47.3757 28.4684 47.3165 28.2006 47.198C27.9379 47.0744 27.7293 46.9096 27.5748 46.7035C27.4203 46.4924 27.3379 46.258 27.3276 46.0005H28.2392C28.2547 46.1808 28.3397 46.3327 28.4942 46.4563C28.6539 46.5748 28.8522 46.634 29.0891 46.634C29.3363 46.634 29.5269 46.5876 29.6608 46.4949C29.7999 46.3971 29.8694 46.2735 29.8694 46.1241C29.8694 45.9644 29.7921 45.846 29.6376 45.7687C29.4883 45.6915 29.2488 45.6065 28.9191 45.5138C28.5998 45.4262 28.3397 45.3412 28.1388 45.2588C27.9379 45.1764 27.7628 45.0502 27.6135 44.8802C27.4692 44.7103 27.3971 44.4862 27.3971 44.2081C27.3971 43.9815 27.4641 43.7754 27.598 43.59C27.7319 43.3995 27.9225 43.2501 28.1697 43.1419C28.4221 43.0338 28.7105 42.9797 29.035 42.9797C29.5192 42.9797 29.908 43.1033 30.2016 43.3505C30.5003 43.5926 30.66 43.9248 30.6806 44.3472H29.7999C29.7844 44.1566 29.7072 44.0046 29.5681 43.8913C29.429 43.778 29.241 43.7214 29.0041 43.7214C28.7723 43.7214 28.5946 43.7651 28.471 43.8527C28.3474 43.9403 28.2856 44.0562 28.2856 44.2004C28.2856 44.3137 28.3268 44.409 28.4092 44.4862C28.4916 44.5635 28.5921 44.6253 28.7105 44.6716C28.829 44.7128 29.0041 44.7669 29.2359 44.8339C29.5449 44.9163 29.7973 45.0013 29.993 45.0888C30.1939 45.1712 30.3664 45.2949 30.5106 45.4597C30.6549 45.6245 30.7295 45.8434 30.7347 46.1164C30.7347 46.3584 30.6677 46.5748 30.5338 46.7653C30.3999 46.9559 30.2093 47.1053 29.9621 47.2134C29.72 47.3216 29.4342 47.3757 29.1045 47.3757ZM33.5328 47.3757C33.1311 47.3757 32.768 47.2856 32.4435 47.1053C32.119 46.9199 31.8641 46.6623 31.6786 46.3327C31.4932 45.9979 31.4005 45.6116 31.4005 45.1738C31.4005 44.7412 31.4958 44.3575 31.6864 44.0227C31.8769 43.6879 32.137 43.4304 32.4667 43.2501C32.7963 43.0698 33.1646 42.9797 33.5715 42.9797C33.9784 42.9797 34.3466 43.0698 34.6763 43.2501C35.0059 43.4304 35.266 43.6879 35.4566 44.0227C35.6471 44.3575 35.7424 44.7412 35.7424 45.1738C35.7424 45.6065 35.6446 45.9902 35.4488 46.325C35.2531 46.6598 34.9853 46.9199 34.6454 47.1053C34.3106 47.2856 33.9397 47.3757 33.5328 47.3757ZM33.5328 46.6108C33.7595 46.6108 33.9706 46.5567 34.1664 46.4486C34.3672 46.3404 34.5295 46.1782 34.6531 45.9619C34.7767 45.7455 34.8385 45.4829 34.8385 45.1738C34.8385 44.8648 34.7793 44.6047 34.6608 44.3935C34.5423 44.1772 34.3853 44.0149 34.1895 43.9068C33.9938 43.7986 33.7826 43.7445 33.556 43.7445C33.3294 43.7445 33.1182 43.7986 32.9225 43.9068C32.7319 44.0149 32.58 44.1772 32.4667 44.3935C32.3534 44.6047 32.2967 44.8648 32.2967 45.1738C32.2967 45.6322 32.4126 45.9876 32.6444 46.24C32.8813 46.4872 33.1774 46.6108 33.5328 46.6108ZM37.4938 41.589V47.3062H36.6131V41.589H37.4938ZM40.2958 46.5181L41.501 43.0492H42.4358L40.8134 47.3062H39.7627L38.148 43.0492H39.0905L40.2958 46.5181ZM47.0031 45.0734C47.0031 45.2331 46.9928 45.3773 46.9722 45.506H43.7197C43.7454 45.846 43.8716 46.1189 44.0982 46.325C44.3248 46.531 44.603 46.634 44.9326 46.634C45.4065 46.634 45.7412 46.4357 45.937 46.0391H46.8872C46.7585 46.4306 46.5241 46.7525 46.1842 47.0048C45.8494 47.2521 45.4322 47.3757 44.9326 47.3757C44.5257 47.3757 44.16 47.2856 43.8355 47.1053C43.5162 46.9199 43.2638 46.6623 43.0784 46.3327C42.8981 45.9979 42.808 45.6116 42.808 45.1738C42.808 44.736 42.8956 44.3523 43.0707 44.0227C43.251 43.6879 43.5008 43.4304 43.8201 43.2501C44.1446 43.0698 44.5154 42.9797 44.9326 42.9797C45.3344 42.9797 45.6923 43.0672 46.0065 43.2424C46.3207 43.4175 46.5653 43.6647 46.7405 43.984C46.9156 44.2982 47.0031 44.6613 47.0031 45.0734ZM46.0838 44.7953C46.0786 44.4708 45.9627 44.2107 45.7361 44.0149C45.5095 43.8192 45.2288 43.7214 44.894 43.7214C44.5901 43.7214 44.33 43.8192 44.1137 44.0149C43.8973 44.2055 43.7686 44.4656 43.7274 44.7953H46.0838ZM53.7088 43.0492L51.0975 49.3071H50.1858L51.0511 47.2366L49.3746 43.0492H50.3558L51.5533 46.2941L52.7971 43.0492H53.7088ZM56.2199 47.3757C55.8182 47.3757 55.4551 47.2856 55.1306 47.1053C54.8061 46.9199 54.5512 46.6623 54.3657 46.3327C54.1803 45.9979 54.0876 45.6116 54.0876 45.1738C54.0876 44.7412 54.1829 44.3575 54.3735 44.0227C54.564 43.6879 54.8241 43.4304 55.1538 43.2501C55.4834 43.0698 55.8517 42.9797 56.2586 42.9797C56.6655 42.9797 57.0337 43.0698 57.3634 43.2501C57.693 43.4304 57.9531 43.6879 58.1437 44.0227C58.3342 44.3575 58.4295 44.7412 58.4295 45.1738C58.4295 45.6065 58.3317 45.9902 58.1359 46.325C57.9402 46.6598 57.6724 46.9199 57.3325 47.1053C56.9977 47.2856 56.6268 47.3757 56.2199 47.3757ZM56.2199 46.6108C56.4466 46.6108 56.6577 46.5567 56.8535 46.4486C57.0543 46.3404 57.2166 46.1782 57.3402 45.9619C57.4638 45.7455 57.5256 45.4829 57.5256 45.1738C57.5256 44.8648 57.4664 44.6047 57.3479 44.3935C57.2294 44.1772 57.0724 44.0149 56.8766 43.9068C56.6809 43.7986 56.4697 43.7445 56.2431 43.7445C56.0165 43.7445 55.8053 43.7986 55.6096 43.9068C55.419 44.0149 55.2671 44.1772 55.1538 44.3935C55.0405 44.6047 54.9838 44.8648 54.9838 45.1738C54.9838 45.6322 55.0997 45.9876 55.3315 46.24C55.5684 46.4872 55.8645 46.6108 56.2199 46.6108ZM63.1554 43.0492V47.3062H62.2746V46.804C62.1356 46.9791 61.9527 47.1182 61.7261 47.2212C61.5046 47.319 61.2677 47.368 61.0153 47.368C60.6805 47.368 60.3792 47.2984 60.1114 47.1594C59.8487 47.0203 59.6401 46.8143 59.4856 46.5413C59.3362 46.2683 59.2616 45.9387 59.2616 45.5524V43.0492H60.1346V45.421C60.1346 45.8022 60.2299 46.0958 60.4204 46.3018C60.611 46.5027 60.8711 46.6031 61.2007 46.6031C61.5304 46.6031 61.7905 46.5027 61.9811 46.3018C62.1768 46.0958 62.2746 45.8022 62.2746 45.421V43.0492H63.1554ZM65.1982 43.6673C65.327 43.451 65.4969 43.2836 65.7081 43.1651C65.9244 43.0415 66.1794 42.9797 66.473 42.9797V43.8913H66.2489C65.9038 43.8913 65.6411 43.9789 65.4609 44.154C65.2858 44.3291 65.1982 44.633 65.1982 45.0657V47.3062H64.3175V43.0492H65.1982V43.6673ZM68.9959 45.1584C68.9959 44.7309 69.0834 44.3523 69.2586 44.0227C69.4388 43.693 69.6809 43.4381 69.9848 43.2578C70.2938 43.0724 70.6338 42.9797 71.0046 42.9797C71.3394 42.9797 71.6304 43.0466 71.8776 43.1806C72.13 43.3093 72.3309 43.4716 72.4802 43.6673V43.0492H73.3687V47.3062H72.4802V46.6726C72.3309 46.8735 72.1274 47.0409 71.8699 47.1748C71.6124 47.3087 71.3188 47.3757 70.9891 47.3757C70.6235 47.3757 70.2887 47.283 69.9848 47.0976C69.6809 46.907 69.4388 46.6443 69.2586 46.3095C69.0834 45.9696 68.9959 45.5859 68.9959 45.1584ZM72.4802 45.1738C72.4802 44.8802 72.4184 44.6253 72.2948 44.409C72.1763 44.1926 72.0193 44.0278 71.8235 43.9145C71.6278 43.8012 71.4166 43.7445 71.19 43.7445C70.9634 43.7445 70.7522 43.8012 70.5565 43.9145C70.3608 44.0227 70.2011 44.1849 70.0775 44.4012C69.959 44.6124 69.8998 44.8648 69.8998 45.1584C69.8998 45.452 69.959 45.7095 70.0775 45.931C70.2011 46.1524 70.3608 46.3224 70.5565 46.4409C70.7574 46.5542 70.9685 46.6108 71.19 46.6108C71.4166 46.6108 71.6278 46.5542 71.8235 46.4409C72.0193 46.3275 72.1763 46.1627 72.2948 45.9464C72.4184 45.7249 72.4802 45.4674 72.4802 45.1738ZM75.4063 43.6673C75.535 43.451 75.705 43.2836 75.9162 43.1651C76.1325 43.0415 76.3874 42.9797 76.681 42.9797V43.8913H76.457C76.1119 43.8913 75.8492 43.9789 75.6689 44.154C75.4938 44.3291 75.4063 44.633 75.4063 45.0657V47.3062H74.5255V43.0492H75.4063V43.6673ZM78.5181 43.7677V46.1241C78.5181 46.2838 78.5542 46.3997 78.6263 46.4718C78.7036 46.5387 78.8323 46.5722 79.0126 46.5722H79.5534V47.3062H78.8581C78.4615 47.3062 78.1576 47.2134 77.9464 47.028C77.7353 46.8426 77.6297 46.5413 77.6297 46.1241V43.7677H77.1275V43.0492H77.6297V41.9908H78.5181V43.0492H79.5534V43.7677H78.5181ZM80.8133 42.4852C80.6536 42.4852 80.5197 42.4311 80.4115 42.323C80.3034 42.2148 80.2493 42.0809 80.2493 41.9212C80.2493 41.7616 80.3034 41.6277 80.4115 41.5195C80.5197 41.4113 80.6536 41.3573 80.8133 41.3573C80.9678 41.3573 81.0991 41.4113 81.2073 41.5195C81.3154 41.6277 81.3695 41.7616 81.3695 41.9212C81.3695 42.0809 81.3154 42.2148 81.2073 42.323C81.0991 42.4311 80.9678 42.4852 80.8133 42.4852ZM81.2459 43.0492V47.3062H80.3652V43.0492H81.2459ZM83.9474 47.3757C83.6126 47.3757 83.3113 47.3165 83.0435 47.198C82.7808 47.0744 82.5722 46.9096 82.4177 46.7035C82.2632 46.4924 82.1808 46.258 82.1705 46.0005H83.0821C83.0976 46.1808 83.1826 46.3327 83.3371 46.4563C83.4967 46.5748 83.695 46.634 83.932 46.634C84.1792 46.634 84.3698 46.5876 84.5037 46.4949C84.6427 46.3971 84.7123 46.2735 84.7123 46.1241C84.7123 45.9644 84.635 45.846 84.4805 45.7687C84.3311 45.6915 84.0916 45.6065 83.762 45.5138C83.4427 45.4262 83.1826 45.3412 82.9817 45.2588C82.7808 45.1764 82.6057 45.0502 82.4563 44.8802C82.3121 44.7103 82.24 44.4862 82.24 44.2081C82.24 43.9815 82.307 43.7754 82.4409 43.59C82.5748 43.3995 82.7654 43.2501 83.0126 43.1419C83.265 43.0338 83.5534 42.9797 83.8779 42.9797C84.362 42.9797 84.7509 43.1033 85.0445 43.3505C85.3432 43.5926 85.5029 43.9248 85.5235 44.3472H84.6427C84.6273 44.1566 84.55 44.0046 84.411 43.8913C84.2719 43.778 84.0839 43.7214 83.847 43.7214C83.6152 43.7214 83.4375 43.7651 83.3139 43.8527C83.1903 43.9403 83.1285 44.0562 83.1285 44.2004C83.1285 44.3137 83.1697 44.409 83.2521 44.4862C83.3345 44.5635 83.4349 44.6253 83.5534 44.6716C83.6719 44.7128 83.847 44.7669 84.0788 44.8339C84.3878 44.9163 84.6402 45.0013 84.8359 45.0888C85.0368 45.1712 85.2093 45.2949 85.3535 45.4597C85.4977 45.6245 85.5724 45.8434 85.5776 46.1164C85.5776 46.3584 85.5106 46.5748 85.3767 46.7653C85.2428 46.9559 85.0522 47.1053 84.805 47.2134C84.5629 47.3216 84.2771 47.3757 83.9474 47.3757ZM87.5568 43.7677V46.1241C87.5568 46.2838 87.5928 46.3997 87.6649 46.4718C87.7422 46.5387 87.871 46.5722 88.0512 46.5722H88.592V47.3062H87.8967C87.5001 47.3062 87.1962 47.2134 86.9851 47.028C86.7739 46.8426 86.6683 46.5413 86.6683 46.1241V43.7677H86.1661V43.0492H86.6683V41.9908H87.5568V43.0492H88.592V43.7677H87.5568ZM89.8519 42.4852C89.6922 42.4852 89.5583 42.4311 89.4501 42.323C89.342 42.2148 89.2879 42.0809 89.2879 41.9212C89.2879 41.7616 89.342 41.6277 89.4501 41.5195C89.5583 41.4113 89.6922 41.3573 89.8519 41.3573C90.0064 41.3573 90.1377 41.4113 90.2459 41.5195C90.3541 41.6277 90.4081 41.7616 90.4081 41.9212C90.4081 42.0809 90.3541 42.2148 90.2459 42.323C90.1377 42.4311 90.0064 42.4852 89.8519 42.4852ZM90.2845 43.0492V47.3062H89.4038V43.0492H90.2845ZM91.1473 45.1738C91.1473 44.736 91.2349 44.3523 91.41 44.0227C91.5902 43.6879 91.8375 43.4304 92.1516 43.2501C92.4658 43.0698 92.8264 42.9797 93.2333 42.9797C93.748 42.9797 94.173 43.1033 94.508 43.3505C94.848 43.5926 95.077 43.9403 95.196 44.3935H94.245C94.168 44.1823 94.044 44.0175 93.875 43.8991C93.705 43.7806 93.4908 43.7214 93.2333 43.7214C92.8727 43.7214 92.5843 43.8501 92.368 44.1077C92.1568 44.36 92.0512 44.7154 92.0512 45.1738C92.0512 45.6322 92.1568 45.9902 92.368 46.2477C92.5843 46.5052 92.8727 46.634 93.2333 46.634C93.743 46.634 94.081 46.41 94.245 45.9619H95.196C95.072 46.3945 94.84 46.7396 94.5 46.9971C94.16 47.2495 93.738 47.3757 93.2333 47.3757C92.8264 47.3757 92.4658 47.2856 92.1516 47.1053C91.8375 46.9199 91.5902 46.6623 91.41 46.3327C91.2349 45.9979 91.1473 45.6116 91.1473 45.1738ZM98.961 43.6827C99.11 43.4767 99.314 43.3093 99.571 43.1806C99.834 43.0466 100.125 42.9797 100.444 42.9797C100.82 42.9797 101.16 43.0698 101.464 43.2501C101.768 43.4304 102.008 43.6879 102.183 44.0227C102.358 44.3523 102.445 44.7309 102.445 45.1584C102.445 45.5859 102.358 45.9696 102.183 46.3095C102.008 46.6443 101.765 46.907 101.456 47.0976C101.153 47.283 100.815 47.3757 100.444 47.3757C100.115 47.3757 99.821 47.3113 99.564 47.1825C99.311 47.0538 99.11 46.889 98.961 46.6881V47.3062H98.08V41.589H98.961V43.6827ZM101.549 45.1584C101.549 44.8648 101.487 44.6124 101.364 44.4012C101.245 44.1849 101.086 44.0227 100.885 43.9145C100.689 43.8012 100.478 43.7445 100.251 43.7445C100.03 43.7445 99.819 43.8012 99.618 43.9145C99.422 44.0278 99.262 44.1926 99.139 44.409C99.02 44.6253 98.961 44.8802 98.961 45.1738C98.961 45.4674 99.02 45.7249 99.139 45.9464C99.262 46.1627 99.422 46.3275 99.618 46.4409C99.819 46.5542 100.03 46.6108 100.251 46.6108C100.478 46.6108 100.689 46.5542 100.885 46.4409C101.086 46.3224 101.245 46.1524 101.364 45.931C101.487 45.7095 101.549 45.452 101.549 45.1584ZM104.197 41.589V47.3062H103.316V41.589H104.197ZM107.2 47.3757C106.798 47.3757 106.435 47.2856 106.111 47.1053C105.786 46.9199 105.531 46.6623 105.346 46.3327C105.16 45.9979 105.068 45.6116 105.068 45.1738C105.068 44.7412 105.163 44.3575 105.353 44.0227C105.544 43.6879 105.804 43.4304 106.134 43.2501C106.463 43.0698 106.832 42.9797 107.239 42.9797C107.645 42.9797 108.014 43.0698 108.343 43.2501C108.673 43.4304 108.933 43.6879 109.124 44.0227C109.314 44.3575 109.409 44.7412 109.409 45.1738C109.409 45.6065 109.312 45.9902 109.116 46.325C108.92 46.6598 108.652 46.9199 108.312 47.1053C107.978 47.2856 107.607 47.3757 107.2 47.3757ZM107.2 46.6108C107.427 46.6108 107.638 46.5567 107.833 46.4486C108.034 46.3404 108.197 46.1782 108.32 45.9619C108.444 45.7455 108.506 45.4829 108.506 45.1738C108.506 44.8648 108.446 44.6047 108.328 44.3935C108.209 44.1772 108.052 44.0149 107.857 43.9068C107.661 43.7986 107.45 43.7445 107.223 43.7445C106.996 43.7445 106.785 43.7986 106.59 43.9068C106.399 44.0149 106.247 44.1772 106.134 44.3935C106.02 44.6047 105.964 44.8648 105.964 45.1738C105.964 45.6322 106.08 45.9876 106.311 46.24C106.548 46.4872 106.845 46.6108 107.2 46.6108ZM109.987 45.1738C109.987 44.736 110.074 44.3523 110.249 44.0227C110.43 43.6879 110.677 43.4304 110.991 43.2501C111.305 43.0698 111.666 42.9797 112.073 42.9797C112.588 42.9797 113.013 43.1033 113.347 43.3505C113.687 43.5926 113.916 43.9403 114.035 44.3935H113.085C113.007 44.1823 112.884 44.0175 112.714 43.8991C112.544 43.7806 112.33 43.7214 112.073 43.7214C111.712 43.7214 111.424 43.8501 111.207 44.1077C110.996 44.36 110.89 44.7154 110.89 45.1738C110.89 45.6322 110.996 45.9902 111.207 46.2477C111.424 46.5052 111.712 46.634 112.073 46.634C112.582 46.634 112.92 46.41 113.085 45.9619H114.035C113.911 46.3945 113.68 46.7396 113.34 46.9971C113 47.2495 112.577 47.3757 112.073 47.3757C111.666 47.3757 111.305 47.2856 110.991 47.1053C110.677 46.9199 110.43 46.6623 110.249 46.3327C110.074 45.9979 109.987 45.6116 109.987 45.1738ZM116.597 45.1815L118.559 47.3062H117.369L115.793 45.4751V47.3062H114.913V41.589H115.793V44.9111L117.339 43.0492H118.559L116.597 45.1815ZM118.897 45.1584C118.897 44.7309 118.984 44.3523 119.16 44.0227C119.34 43.693 119.582 43.4381 119.886 43.2578C120.195 43.0724 120.535 42.9797 120.906 42.9797C121.24 42.9797 121.531 43.0466 121.779 43.1806C122.031 43.3093 122.232 43.4716 122.381 43.6673V43.0492H123.27V47.3062H122.381V46.6726C122.232 46.8735 122.028 47.0409 121.771 47.1748C121.513 47.3087 121.22 47.3757 120.89 47.3757C120.525 47.3757 120.19 47.283 119.886 47.0976C119.582 46.907 119.34 46.6443 119.16 46.3095C118.984 45.9696 118.897 45.5859 118.897 45.1584ZM122.381 45.1738C122.381 44.8802 122.319 44.6253 122.196 44.409C122.077 44.1926 121.92 44.0278 121.725 43.9145C121.529 43.8012 121.318 43.7445 121.091 43.7445C120.864 43.7445 120.653 43.8012 120.458 43.9145C120.262 44.0227 120.102 44.1849 119.979 44.4012C119.86 44.6124 119.801 44.8648 119.801 45.1584C119.801 45.452 119.86 45.7095 119.979 45.931C120.102 46.1524 120.262 46.3224 120.458 46.4409C120.658 46.5542 120.87 46.6108 121.091 46.6108C121.318 46.6108 121.529 46.5542 121.725 46.4409C121.92 46.3275 122.077 46.1627 122.196 45.9464C122.319 45.7249 122.381 45.4674 122.381 45.1738ZM126.142 42.9797C126.471 42.9797 126.762 43.0466 127.015 43.1806C127.272 43.3093 127.473 43.4716 127.617 43.6673V43.0492H128.506V47.3757C128.506 47.7671 128.423 48.1148 128.259 48.4187C128.094 48.7277 127.854 48.9698 127.54 49.1449C127.231 49.32 126.86 49.4076 126.428 49.4076C125.851 49.4076 125.372 49.2711 124.991 48.9981C124.609 48.7303 124.393 48.3646 124.342 47.901H125.215C125.282 48.1225 125.423 48.3002 125.64 48.4341C125.861 48.5732 126.124 48.6427 126.428 48.6427C126.783 48.6427 127.069 48.5346 127.285 48.3182C127.507 48.1019 127.617 47.7877 127.617 47.3757V46.6649C127.468 46.8658 127.265 47.0357 127.007 47.1748C126.755 47.3087 126.466 47.3757 126.142 47.3757C125.771 47.3757 125.431 47.283 125.122 47.0976C124.818 46.907 124.576 46.6443 124.396 46.3095C124.221 45.9696 124.133 45.5859 124.133 45.1584C124.133 44.7309 124.221 44.3523 124.396 44.0227C124.576 43.693 124.818 43.4381 125.122 43.2578C125.431 43.0724 125.771 42.9797 126.142 42.9797ZM127.617 45.1738C127.617 44.8802 127.556 44.6253 127.432 44.409C127.313 44.1926 127.156 44.0278 126.961 43.9145C126.765 43.8012 126.554 43.7445 126.327 43.7445C126.101 43.7445 125.889 43.8012 125.694 43.9145C125.498 44.0227 125.338 44.1849 125.215 44.4012C125.096 44.6124 125.037 44.8648 125.037 45.1584C125.037 45.452 125.096 45.7095 125.215 45.931C125.338 46.1524 125.498 46.3224 125.694 46.4409C125.894 46.5542 126.106 46.6108 126.327 46.6108C126.554 46.6108 126.765 46.5542 126.961 46.4409C127.156 46.3275 127.313 46.1627 127.432 45.9464C127.556 45.7249 127.617 45.4674 127.617 45.1738ZM133.564 45.0734C133.564 45.2331 133.554 45.3773 133.533 45.506H130.281C130.306 45.846 130.433 46.1189 130.659 46.325C130.886 46.531 131.164 46.634 131.494 46.634C131.968 46.634 132.302 46.4357 132.498 46.0391H133.448C133.32 46.4306 133.085 46.7525 132.745 47.0048C132.41 47.2521 131.993 47.3757 131.494 47.3757C131.087 47.3757 130.721 47.2856 130.397 47.1053C130.077 46.9199 129.825 46.6623 129.639 46.3327C129.459 45.9979 129.369 45.6116 129.369 45.1738C129.369 44.736 129.457 44.3523 129.632 44.0227C129.812 43.6879 130.062 43.4304 130.381 43.2501C130.706 43.0698 131.076 42.9797 131.494 42.9797C131.895 42.9797 132.253 43.0672 132.568 43.2424C132.882 43.4175 133.126 43.6647 133.302 43.984C133.477 44.2982 133.564 44.6613 133.564 45.0734ZM132.645 44.7953C132.64 44.4708 132.524 44.2107 132.297 44.0149C132.071 43.8192 131.79 43.7214 131.455 43.7214C131.151 43.7214 130.891 43.8192 130.675 44.0149C130.458 44.2055 130.33 44.4656 130.288 44.7953H132.645ZM135.976 47.3757C135.641 47.3757 135.34 47.3165 135.072 47.198C134.809 47.0744 134.601 46.9096 134.446 46.7035C134.292 46.4924 134.209 46.258 134.199 46.0005H135.111C135.126 46.1808 135.211 46.3327 135.366 46.4563C135.525 46.5748 135.724 46.634 135.961 46.634C136.208 46.634 136.398 46.5876 136.532 46.4949C136.671 46.3971 136.741 46.2735 136.741 46.1241C136.741 45.9644 136.664 45.846 136.509 45.7687C136.36 45.6915 136.12 45.6065 135.791 45.5138C135.471 45.4262 135.211 45.3412 135.01 45.2588C134.809 45.1764 134.634 45.0502 134.485 44.8802C134.341 44.7103 134.269 44.4862 134.269 44.2081C134.269 43.9815 134.336 43.7754 134.47 43.59C134.603 43.3995 134.794 43.2501 135.041 43.1419C135.294 43.0338 135.582 42.9797 135.907 42.9797C136.391 42.9797 136.78 43.1033 137.073 43.3505C137.372 43.5926 137.532 43.9248 137.552 44.3472H136.671C136.656 44.1566 136.579 44.0046 136.44 43.8913C136.301 43.778 136.113 43.7214 135.876 43.7214C135.644 43.7214 135.466 43.7651 135.343 43.8527C135.219 43.9403 135.157 44.0562 135.157 44.2004C135.157 44.3137 135.198 44.409 135.281 44.4862C135.363 44.5635 135.464 44.6253 135.582 44.6716C135.701 44.7128 135.876 44.7669 136.107 44.8339C136.416 44.9163 136.669 45.0013 136.865 45.0888C137.065 45.1712 137.238 45.2949 137.382 45.4597C137.526 45.6245 137.601 45.8434 137.606 46.1164C137.606 46.3584 137.539 46.5748 137.405 46.7653C137.271 46.9559 137.081 47.1053 136.834 47.2134C136.592 47.3216 136.306 47.3757 135.976 47.3757Z" fill="white"/>
</g>
<defs>
<clipPath id="clip0_534_12794">
<rect width="199" height="50" fill="white" transform="translate(0.5)"/>
</clipPath>
</defs>
</svg>
