<svg width="135" height="48" viewBox="0 0 135 48" fill="none" xmlns="http://www.w3.org/2000/svg">
<g clip-path="url(#clip0_534_12758)">
<mask id="mask0_534_12758" style="mask-type:luminance" maskUnits="userSpaceOnUse" x="0" y="0" width="134" height="48">
<path d="M133.545 0H0.5V47.9636H133.545V0Z" fill="white"/>
</mask>
<g mask="url(#mask0_534_12758)">
<path d="M54.0906 11.9473H62.0362C63.9501 11.9473 65.632 12.2952 67.0819 13.0492C68.5319 13.7452 69.6918 14.7891 70.5038 16.1231C71.3157 17.457 71.7217 18.9649 71.7217 20.7048C71.7217 22.4447 71.3157 24.0107 70.5038 25.2866C69.6918 26.6205 68.5899 27.6065 67.0819 28.3605C65.632 29.0564 63.9501 29.4624 62.0362 29.4624H54.0906V11.9473ZM61.8622 26.0986C63.6021 26.0986 64.994 25.6346 66.038 24.6486C67.0819 23.6627 67.6039 22.3288 67.6039 20.7048C67.6039 19.0229 67.0819 17.747 66.038 16.761C64.994 15.7751 63.6021 15.3111 61.8622 15.3111H58.1504V26.0986H61.8622Z" fill="white"/>
<path d="M74.6794 13.4554C74.2154 13.0494 73.9834 12.5274 73.9834 11.8894C73.9834 11.2515 74.2154 10.7295 74.6794 10.3235C75.1433 9.91753 75.7233 9.68555 76.4193 9.68555C77.1152 9.68555 77.6952 9.85954 78.1592 10.2655C78.6232 10.6715 78.8552 11.1355 78.8552 11.7734C78.8552 12.4114 78.6232 12.9334 78.1592 13.3974C77.6952 13.8033 77.1152 14.0353 76.4193 14.0353C75.6653 14.0933 75.0853 13.9193 74.6794 13.4554ZM74.4474 15.9492H78.3332V29.4046H74.4474V15.9492Z" fill="white"/>
<path d="M95.0366 23.779H84.8871C85.0611 24.591 85.5251 25.2869 86.163 25.7509C86.859 26.2149 87.671 26.4469 88.7149 26.4469C89.4109 26.4469 90.0488 26.3309 90.5708 26.1569C91.0928 25.9249 91.6148 25.6349 92.0787 25.1709L94.1666 27.4328C92.8907 28.8827 91.0348 29.5787 88.5989 29.5787C87.091 29.5787 85.757 29.2887 84.5971 28.7088C83.4372 28.1288 82.5092 27.3168 81.9292 26.2729C81.2913 25.2289 81.0013 24.011 81.0013 22.677C81.0013 21.3431 81.2913 20.1832 81.9292 19.1392C82.5672 18.0953 83.4372 17.2833 84.4811 16.6453C85.5831 16.0654 86.801 15.7754 88.1349 15.7754C89.4689 15.7754 90.6288 16.0654 91.7308 16.6453C92.7747 17.2253 93.6447 18.0373 94.2246 19.0812C94.8046 20.1252 95.1526 21.3431 95.1526 22.735C95.0946 22.793 95.0946 23.141 95.0366 23.779ZM85.931 19.4872C85.3511 20.0092 84.9451 20.6471 84.8291 21.5171H91.4408C91.3248 20.6471 90.9188 20.0092 90.3388 19.4872C89.7588 18.9652 89.0049 18.7332 88.1349 18.7332C87.265 18.7332 86.511 18.9652 85.931 19.4872Z" fill="white"/>
<path d="M97.7043 10.9033H101.59V29.4044H97.7043V10.9033Z" fill="white"/>
<path d="M107.854 28.7088C106.694 28.1288 105.824 27.3168 105.186 26.2729C104.548 25.2289 104.2 24.011 104.2 22.677C104.2 21.3431 104.548 20.1832 105.186 19.0812C105.824 18.0373 106.694 17.2253 107.854 16.6453C109.014 16.0654 110.29 15.7754 111.682 15.7754C113.074 15.7754 114.35 16.0654 115.394 16.6453C116.438 17.2253 117.191 18.0953 117.713 19.1972L114.698 20.8211C114.002 19.6032 113.016 18.9652 111.682 18.9652C110.638 18.9652 109.826 19.3132 109.188 19.9512C108.55 20.5892 108.202 21.5171 108.202 22.677C108.202 23.837 108.55 24.707 109.188 25.4029C109.826 26.0409 110.696 26.3889 111.682 26.3889C113.016 26.3889 114.002 25.7509 114.698 24.533L117.713 26.1569C117.249 27.2008 116.438 28.0708 115.394 28.6508C114.35 29.2307 113.074 29.5207 111.682 29.5207C110.29 29.5787 109.014 29.2887 107.854 28.7088Z" fill="white"/>
<path d="M122.411 28.7088C121.309 28.1288 120.381 27.3168 119.801 26.2729C119.163 25.2289 118.873 24.011 118.873 22.677C118.873 21.3431 119.163 20.1832 119.801 19.0812C120.439 18.0373 121.309 17.2253 122.411 16.6453C123.513 16.0654 124.789 15.7754 126.239 15.7754C127.631 15.7754 128.907 16.0654 130.009 16.6453C131.111 17.2253 131.981 18.0373 132.619 19.0812C133.257 20.1252 133.547 21.3431 133.547 22.677C133.547 24.011 133.257 25.1709 132.619 26.2729C131.981 27.3168 131.111 28.1288 130.009 28.7088C128.907 29.2887 127.631 29.5787 126.239 29.5787C124.789 29.5787 123.513 29.2887 122.411 28.7088ZM128.675 25.4029C129.313 24.707 129.661 23.837 129.661 22.677C129.661 21.5171 129.313 20.6472 128.675 19.9512C128.037 19.2552 127.225 18.9652 126.239 18.9652C125.253 18.9652 124.441 19.3132 123.745 19.9512C123.107 20.6472 122.759 21.5171 122.759 22.677C122.759 23.837 123.107 24.707 123.745 25.4029C124.383 26.0989 125.195 26.3889 126.239 26.3889C127.225 26.3889 128.037 26.0989 128.675 25.4029Z" fill="white"/>
<path d="M54.0906 34.3926H54.9605V38.1624H54.0906V34.3926Z" fill="white"/>
<path d="M58.7883 35.4946C59.0203 35.7266 59.1363 36.0166 59.1363 36.4805V38.1624H58.2663V36.6545C58.2663 36.4225 58.2083 36.2485 58.0923 36.1325C57.9763 36.0165 57.8603 35.9586 57.6284 35.9586C57.3964 35.9586 57.2224 36.0165 57.1064 36.1325C56.9904 36.2485 56.9324 36.4805 56.9324 36.7125V38.1624H56.0624V35.2626H56.8744V35.6106C56.9904 35.4946 57.1064 35.3786 57.2804 35.3206C57.4544 35.2626 57.6284 35.2046 57.8024 35.2046C58.2663 35.2046 58.5563 35.3206 58.7883 35.4946Z" fill="white"/>
<path d="M63.1381 34.1606V38.1624H62.3261V37.8145C62.0941 38.0465 61.8042 38.2204 61.3982 38.2204C61.1082 38.2204 60.8762 38.1624 60.6442 38.0465C60.4122 37.9305 60.2382 37.7565 60.1222 37.5245C60.0062 37.2925 59.9482 37.0605 59.9482 36.7125C59.9482 36.3645 60.0062 36.1325 60.1222 35.9006C60.2382 35.6686 60.4122 35.4946 60.6442 35.3786C60.8762 35.2626 61.1082 35.2046 61.3982 35.2046C61.7462 35.2046 62.0361 35.3206 62.2681 35.5526V34.1606H63.1381ZM62.0941 37.2925C62.2101 37.1185 62.3261 36.9445 62.3261 36.7125C62.3261 36.4805 62.2681 36.2485 62.0941 36.1325C61.9781 35.9586 61.8042 35.9006 61.5722 35.9006C61.3402 35.9006 61.1662 35.9586 61.0502 36.1325C60.9342 36.3065 60.8182 36.4805 60.8182 36.7125C60.8182 36.9445 60.8762 37.1765 61.0502 37.2925C61.1662 37.4665 61.3402 37.5245 61.5722 37.5245C61.8042 37.4665 61.9781 37.4085 62.0941 37.2925Z" fill="white"/>
<path d="M67.1398 35.2622V38.1621H66.3278V37.8141C66.2118 37.9301 66.0958 38.0461 65.9218 38.1041C65.7478 38.1621 65.5738 38.2201 65.3998 38.2201C64.9939 38.2201 64.7039 38.1041 64.4719 37.8721C64.2399 37.6401 64.1239 37.3501 64.1239 36.8861V35.2622H64.9939V36.7701C64.9939 37.2341 65.1679 37.4661 65.5738 37.4661C65.7478 37.4661 65.9218 37.4081 66.0378 37.2921C66.1538 37.1761 66.2118 36.9441 66.2118 36.7121V35.2622H67.1398Z" fill="white"/>
<path d="M68.5319 38.1043C68.2999 38.0463 68.1259 37.9883 68.0099 37.8724L68.2999 37.2924C68.4159 37.3504 68.5899 37.4664 68.7638 37.4664C68.9378 37.5244 69.1118 37.5244 69.2858 37.5244C69.6338 37.5244 69.8078 37.4084 69.8078 37.2344C69.8078 37.1764 69.7498 37.1184 69.6338 37.0604C69.5178 37.0024 69.4018 37.0024 69.1698 36.9444C68.9378 36.8864 68.7639 36.8864 68.5899 36.8284C68.4159 36.7704 68.2999 36.7124 68.1839 36.5964C68.0679 36.4804 68.0099 36.3064 68.0099 36.0744C68.0099 35.9004 68.0679 35.7265 68.1839 35.6105C68.2999 35.4945 68.4159 35.3785 68.6479 35.2625C68.8798 35.2045 69.1118 35.1465 69.3438 35.1465C69.5758 35.1465 69.7498 35.1465 69.9818 35.2045C70.2138 35.2625 70.3298 35.3205 70.5038 35.3785L70.2138 35.9584C69.9818 35.8425 69.6918 35.7265 69.4018 35.7265C69.2278 35.7265 69.1118 35.7265 68.9958 35.7845C68.8798 35.8425 68.8798 35.9004 68.8798 35.9584C68.8798 36.0744 68.9378 36.1324 69.0538 36.1324C69.1698 36.1904 69.2858 36.1904 69.5178 36.2484C69.7498 36.3064 69.9238 36.3064 70.0978 36.3644C70.2718 36.4224 70.3878 36.4804 70.5038 36.5964C70.6198 36.7124 70.6778 36.8864 70.6778 37.1184C70.6778 37.2924 70.6198 37.4664 70.5038 37.5824C70.3878 37.6984 70.2138 37.8144 70.0398 37.9303C69.8078 37.9883 69.5758 38.0463 69.2858 38.0463C68.9958 38.1623 68.7639 38.1623 68.5319 38.1043Z" fill="white"/>
<path d="M73.2876 37.9883C73.2296 38.0463 73.1137 38.1043 72.9977 38.1043C72.8817 38.1623 72.7657 38.1623 72.5917 38.1623C72.2437 38.1623 71.9537 38.0463 71.7797 37.8724C71.6057 37.6984 71.4897 37.4084 71.4897 37.1184V35.9584H71.0258V35.3205H71.4897V34.6245H72.3597V35.3205H73.0557V35.9584H72.3597V37.1184C72.3597 37.2344 72.4177 37.3504 72.4757 37.4084C72.5337 37.4664 72.6497 37.5244 72.7657 37.5244C72.8817 37.5244 72.9977 37.4664 73.1137 37.4084L73.2876 37.9883Z" fill="white"/>
<path d="M75.2593 35.3206C75.4333 35.2626 75.6073 35.2046 75.8393 35.2046V35.9586C75.7233 35.9586 75.6653 35.9586 75.6653 35.9586C75.4333 35.9586 75.2593 36.0165 75.0853 36.1325C74.9694 36.2485 74.8534 36.4805 74.8534 36.7125V38.1044H73.9834V35.2046H74.7954V35.6106C74.9694 35.4946 75.0853 35.3786 75.2593 35.3206Z" fill="white"/>
<path d="M76.7094 34.6826C76.5935 34.5666 76.5355 34.5086 76.5355 34.3346C76.5355 34.2186 76.5935 34.1026 76.7094 33.9866C76.8254 33.8706 76.9414 33.8706 77.1154 33.8706C77.2894 33.8706 77.4054 33.9286 77.5214 33.9866C77.6374 34.0446 77.6954 34.1606 77.6954 34.3346C77.6954 34.4506 77.6374 34.5666 77.5214 34.6826C77.4054 34.7986 77.2894 34.7986 77.1154 34.7986C76.9414 34.8566 76.8254 34.7986 76.7094 34.6826ZM76.6515 35.2625H77.5214V38.1624H76.6515V35.2625Z" fill="white"/>
<path d="M80.8274 35.4946C81.0594 35.7266 81.1754 36.0166 81.1754 36.4805V38.1624H80.3634V37.8145C80.1894 38.1044 79.8994 38.2204 79.4935 38.2204C79.2615 38.2204 79.0875 38.1624 78.9135 38.1044C78.7395 38.0464 78.6235 37.9305 78.5655 37.8145C78.5075 37.6985 78.4495 37.5245 78.4495 37.3505C78.4495 37.0605 78.5655 36.8865 78.7395 36.7125C78.9715 36.5385 79.2615 36.4805 79.6674 36.4805H80.3634C80.3634 36.3065 80.3054 36.1325 80.1894 36.0745C80.0734 35.9586 79.8994 35.9006 79.6674 35.9006C79.4935 35.9006 79.3775 35.9006 79.2035 35.9586C79.0295 36.0165 78.9135 36.0745 78.7975 36.1325L78.5075 35.5526C78.6815 35.4366 78.8555 35.3786 79.0875 35.3206C79.3195 35.2626 79.5514 35.2046 79.7834 35.2046C80.2474 35.2046 80.5954 35.3206 80.8274 35.4946ZM80.0734 37.5245C80.1894 37.4665 80.2474 37.3505 80.3054 37.2345V36.9445H79.7254C79.3775 36.9445 79.2035 37.0605 79.2035 37.2925C79.2035 37.4085 79.2615 37.4665 79.3195 37.5245C79.3775 37.5825 79.4935 37.6405 79.6674 37.6405C79.8414 37.6405 79.9574 37.5825 80.0734 37.5245Z" fill="white"/>
<path d="M82.2192 34.1606H83.0892V38.1624H82.2192V34.1606Z" fill="white"/>
<path d="M86.801 37.9303C86.511 37.7563 86.221 37.5243 86.047 37.2343C85.873 36.9443 85.757 36.5964 85.757 36.2484C85.757 35.9004 85.873 35.5524 86.047 35.2624C86.221 34.9724 86.453 34.7405 86.801 34.5665C87.091 34.3925 87.4389 34.3345 87.8449 34.3345C88.1929 34.3345 88.4829 34.3925 88.7149 34.5085C89.0049 34.6245 89.1788 34.7985 89.3528 35.0304L88.7729 35.5524C88.5409 35.2624 88.1929 35.0884 87.8449 35.0884C87.6129 35.0884 87.3809 35.1464 87.2069 35.2624C87.033 35.3784 86.859 35.4944 86.801 35.6684C86.685 35.8424 86.627 36.0744 86.627 36.3064C86.627 36.5384 86.685 36.7704 86.801 36.9443C86.917 37.1183 87.033 37.2923 87.2069 37.3503C87.3809 37.4663 87.6129 37.5243 87.8449 37.5243C88.2509 37.5243 88.5409 37.3503 88.7729 37.0603L89.3528 37.5823C89.1788 37.8143 88.9469 37.9883 88.6569 38.1043C88.3669 38.2203 88.0769 38.2783 87.7869 38.2783C87.4969 38.2203 87.149 38.1043 86.801 37.9303Z" fill="white"/>
<path d="M90.7446 37.9881C90.5126 37.8721 90.3386 37.6981 90.1646 37.4661C90.0486 37.2341 89.9326 37.0021 89.9326 36.7121C89.9326 36.4222 89.9906 36.1902 90.1646 35.9582C90.2806 35.7262 90.5126 35.5522 90.7446 35.4362C90.9766 35.3202 91.2666 35.2622 91.5565 35.2622C91.8465 35.2622 92.1365 35.3202 92.3685 35.4362C92.6005 35.5522 92.7745 35.7262 92.9485 35.9582C93.0645 36.1902 93.1805 36.4222 93.1805 36.7121C93.1805 37.0021 93.1225 37.2341 92.9485 37.4661C92.8325 37.6981 92.6005 37.8721 92.3685 37.9881C92.1365 38.1041 91.8465 38.1621 91.5565 38.1621C91.2086 38.1621 90.9766 38.1041 90.7446 37.9881ZM92.0785 37.2921C92.1945 37.1181 92.3105 36.9441 92.3105 36.7121C92.3105 36.4801 92.2525 36.2482 92.0785 36.1322C91.9625 35.9582 91.7885 35.9002 91.5565 35.9002C91.3246 35.9002 91.1506 35.9582 91.0346 36.1322C90.9186 36.3062 90.8026 36.4801 90.8026 36.7121C90.8026 36.9441 90.8606 37.1761 91.0346 37.2921C91.1506 37.4661 91.3246 37.5241 91.5565 37.5241C91.7305 37.4661 91.9625 37.4081 92.0785 37.2921Z" fill="white"/>
<path d="M96.6605 35.4946C96.8925 35.7266 97.0085 36.0166 97.0085 36.4805V38.1624H96.1385V36.6545C96.1385 36.4225 96.0805 36.2485 95.9645 36.1325C95.8485 36.0165 95.7325 35.9586 95.5006 35.9586C95.2686 35.9586 95.0946 36.0165 94.9786 36.1325C94.8626 36.2485 94.8046 36.4805 94.8046 36.7125V38.1624H93.9346V35.2626H94.7466V35.6106C94.8626 35.4946 94.9786 35.3786 95.1526 35.3206C95.3266 35.2626 95.5006 35.2046 95.6745 35.2046C96.1385 35.2046 96.4285 35.3206 96.6605 35.4946Z" fill="white"/>
<path d="M99.9083 37.9883C99.8503 38.0463 99.7343 38.1043 99.6183 38.1043C99.5023 38.1623 99.3863 38.1623 99.2123 38.1623C98.8644 38.1623 98.5744 38.0463 98.4004 37.8724C98.2264 37.6984 98.1104 37.4084 98.1104 37.1184V35.9584H97.6464V35.3205H98.1104V34.6245H98.9804V35.3205H99.6763V35.9584H98.9804V37.1184C98.9804 37.2344 99.0384 37.3504 99.0964 37.4084C99.1543 37.4664 99.2703 37.5244 99.3863 37.5244C99.5023 37.5244 99.6183 37.4664 99.7343 37.4084L99.9083 37.9883Z" fill="white"/>
<path d="M101.88 35.3206C102.054 35.2626 102.228 35.2046 102.46 35.2046V35.9586C102.344 35.9586 102.286 35.9586 102.286 35.9586C102.054 35.9586 101.88 36.0165 101.706 36.1325C101.59 36.2485 101.474 36.4805 101.474 36.7125V38.1044H100.604V35.2046H101.416V35.6106C101.59 35.4946 101.706 35.3786 101.88 35.3206Z" fill="white"/>
<path d="M105.476 35.4946C105.708 35.7266 105.824 36.0166 105.824 36.4805V38.1624H105.012V37.8145C104.838 38.1044 104.548 38.2204 104.142 38.2204C103.91 38.2204 103.736 38.1624 103.562 38.1044C103.388 38.0464 103.272 37.9305 103.214 37.8145C103.156 37.6985 103.098 37.5245 103.098 37.3505C103.098 37.0605 103.214 36.8865 103.388 36.7125C103.62 36.5385 103.91 36.4805 104.316 36.4805H105.012C105.012 36.3065 104.954 36.1325 104.838 36.0745C104.722 35.9586 104.548 35.9006 104.316 35.9006C104.142 35.9006 104.026 35.9006 103.852 35.9586C103.678 36.0165 103.562 36.0745 103.446 36.1325L103.156 35.5526C103.33 35.4366 103.504 35.3786 103.736 35.3206C103.968 35.2626 104.2 35.2046 104.432 35.2046C104.896 35.2046 105.244 35.3206 105.476 35.4946ZM104.78 37.5245C104.896 37.4665 104.954 37.3505 105.012 37.2345V36.9445H104.432C104.084 36.9445 103.91 37.0605 103.91 37.2925C103.91 37.4085 103.968 37.4665 104.026 37.5245C104.084 37.5825 104.2 37.6405 104.374 37.6405C104.548 37.6405 104.664 37.5825 104.78 37.5245Z" fill="white"/>
<path d="M107.506 37.9886C107.274 37.8726 107.042 37.6986 106.926 37.4666C106.81 37.2346 106.694 37.0026 106.694 36.7126C106.694 36.4226 106.752 36.1907 106.926 35.9587C107.042 35.7267 107.274 35.5527 107.506 35.4367C107.738 35.3207 108.028 35.2627 108.318 35.2627C108.608 35.2627 108.898 35.3207 109.13 35.4367C109.362 35.5527 109.536 35.7267 109.652 35.9587L109.014 36.3066C108.84 36.0167 108.666 35.9007 108.376 35.9007C108.144 35.9007 107.97 35.9587 107.854 36.1327C107.738 36.2486 107.622 36.4806 107.622 36.7126C107.622 36.9446 107.68 37.1766 107.854 37.2926C107.97 37.4086 108.202 37.5246 108.376 37.5246C108.666 37.5246 108.898 37.4086 109.014 37.1186L109.652 37.4666C109.536 37.6986 109.362 37.8726 109.13 37.9886C108.898 38.1046 108.608 38.1626 108.318 38.1626C108.028 38.1626 107.738 38.1046 107.506 37.9886Z" fill="white"/>
<path d="M112.378 37.9883C112.32 38.0463 112.204 38.1043 112.088 38.1043C111.972 38.1623 111.856 38.1623 111.682 38.1623C111.334 38.1623 111.044 38.0463 110.87 37.8724C110.696 37.6984 110.58 37.4084 110.58 37.1184V35.9584H110.116V35.3205H110.58V34.6245H111.45V35.3205H112.146V35.9584H111.45V37.1184C111.45 37.2344 111.508 37.3504 111.566 37.4084C111.624 37.4664 111.74 37.5244 111.856 37.5244C111.972 37.5244 112.088 37.4664 112.204 37.4084L112.378 37.9883Z" fill="white"/>
<path d="M113.596 37.9886C113.364 37.8726 113.19 37.6986 113.016 37.4666C112.9 37.2346 112.784 37.0026 112.784 36.7126C112.784 36.4226 112.842 36.1907 113.016 35.9587C113.132 35.7267 113.364 35.5527 113.596 35.4367C113.828 35.3207 114.118 35.2627 114.408 35.2627C114.698 35.2627 114.988 35.3207 115.22 35.4367C115.452 35.5527 115.626 35.7267 115.8 35.9587C115.916 36.1907 116.032 36.4226 116.032 36.7126C116.032 37.0026 115.974 37.2346 115.8 37.4666C115.684 37.6986 115.452 37.8726 115.22 37.9886C114.988 38.1046 114.698 38.1626 114.408 38.1626C114.118 38.1626 113.828 38.1046 113.596 37.9886ZM114.988 37.2926C115.104 37.1186 115.22 36.9446 115.22 36.7126C115.22 36.4806 115.162 36.2486 114.988 36.1327C114.872 35.9587 114.698 35.9007 114.466 35.9007C114.234 35.9007 114.06 35.9587 113.944 36.1327C113.828 36.3066 113.712 36.4806 113.712 36.7126C113.712 36.9446 113.77 37.1766 113.944 37.2926C114.06 37.4666 114.234 37.5246 114.466 37.5246C114.64 37.4666 114.814 37.4086 114.988 37.2926Z" fill="white"/>
<path d="M118.119 35.3206C118.293 35.2626 118.467 35.2046 118.699 35.2046V35.9586C118.583 35.9586 118.525 35.9586 118.525 35.9586C118.293 35.9586 118.119 36.0165 117.945 36.1325C117.829 36.2485 117.713 36.4805 117.713 36.7125V38.1044H116.844V35.2046H117.655V35.6106C117.771 35.4946 117.945 35.3786 118.119 35.3206Z" fill="white"/>
<path d="M119.801 38.1043C119.569 38.0463 119.395 37.9883 119.279 37.8724L119.569 37.2924C119.685 37.3504 119.859 37.4664 120.033 37.4664C120.207 37.5244 120.381 37.5244 120.555 37.5244C120.903 37.5244 121.077 37.4084 121.077 37.2344C121.077 37.1764 121.019 37.1184 120.903 37.0604C120.787 37.0024 120.671 37.0024 120.439 36.9444C120.207 36.8864 120.033 36.8864 119.859 36.8284C119.685 36.7704 119.569 36.7124 119.453 36.5964C119.337 36.4804 119.279 36.3064 119.279 36.0744C119.279 35.9004 119.337 35.7265 119.453 35.6105C119.569 35.4945 119.685 35.3785 119.917 35.2625C120.149 35.1465 120.381 35.1465 120.613 35.1465C120.845 35.1465 121.019 35.1465 121.251 35.2045C121.483 35.2625 121.599 35.3205 121.773 35.3785L121.483 35.9584C121.251 35.8425 120.961 35.7265 120.671 35.7265C120.497 35.7265 120.381 35.7265 120.265 35.7845C120.149 35.8425 120.149 35.9004 120.149 35.9584C120.149 36.0744 120.207 36.1324 120.323 36.1324C120.439 36.1904 120.555 36.1904 120.787 36.2484C121.019 36.3064 121.193 36.3064 121.367 36.3644C121.541 36.4224 121.657 36.4804 121.773 36.5964C121.889 36.7124 121.947 36.8864 121.947 37.1184C121.947 37.2924 121.889 37.4664 121.773 37.5824C121.657 37.6984 121.483 37.8144 121.309 37.9303C121.077 37.9883 120.845 38.0463 120.555 38.0463C120.265 38.1623 120.033 38.1623 119.801 38.1043Z" fill="white"/>
<path d="M124.557 34.3926H125.427V37.4664H127.341V38.1624H124.557V34.3926Z" fill="white"/>
<path d="M129.893 37.9883C129.835 38.0463 129.719 38.1043 129.603 38.1043C129.487 38.1623 129.371 38.1623 129.197 38.1623C128.849 38.1623 128.559 38.0463 128.385 37.8724C128.211 37.6984 128.095 37.4084 128.095 37.1184V35.9584H127.631V35.3205H128.095V34.6245H128.965V35.3205H129.661V35.9584H128.965V37.1184C128.965 37.2344 129.023 37.3504 129.081 37.4084C129.139 37.4664 129.255 37.5244 129.371 37.5244C129.487 37.5244 129.603 37.4664 129.719 37.4084L129.893 37.9883Z" fill="white"/>
<path d="M133.547 34.1606V38.1624H132.735V37.8145C132.503 38.0465 132.213 38.2204 131.807 38.2204C131.517 38.2204 131.285 38.1624 131.053 38.0465C130.821 37.9305 130.647 37.7565 130.531 37.5245C130.415 37.2925 130.357 37.0605 130.357 36.7125C130.357 36.3645 130.415 36.1325 130.531 35.9006C130.647 35.6686 130.821 35.4946 131.053 35.3786C131.285 35.2626 131.517 35.2046 131.807 35.2046C132.155 35.2046 132.445 35.3206 132.677 35.5526V34.1606H133.547ZM132.503 37.2925C132.619 37.1185 132.735 36.9445 132.735 36.7125C132.735 36.4805 132.677 36.2485 132.503 36.1325C132.387 35.9586 132.213 35.9006 131.981 35.9006C131.749 35.9006 131.575 35.9586 131.459 36.1325C131.343 36.3065 131.227 36.4805 131.227 36.7125C131.227 36.9445 131.285 37.1765 131.459 37.2925C131.575 37.4665 131.749 37.5245 131.981 37.5245C132.213 37.4665 132.387 37.4085 132.503 37.2925Z" fill="white"/>
<path d="M41.4464 7.01765C37.0966 2.66787 31.1229 0 24.4532 0H0.500427V23.8948C0.500427 31.4924 10.1859 34.7983 14.8257 28.7086C15.9277 28.9986 17.1456 28.5346 17.6676 27.5486C18.2476 26.5047 18.5955 25.4027 18.7695 24.2428C19.0015 22.0969 18.5955 19.429 15.9277 17.2252C13.5498 15.2532 10.3599 14.7313 7.34409 15.0793C6.24215 15.1953 5.1402 15.4272 4.03825 15.7752C3.74827 15.8332 3.34229 16.0652 3.0523 16.1232C2.93631 16.1232 2.82031 16.2972 2.64632 16.2392C2.29834 16.0652 2.53033 15.3112 2.64632 15.0793C2.87831 14.7313 3.28429 14.4413 3.63227 14.2673C8.04006 11.8894 12.7378 10.6135 17.7836 11.3674C22.5973 12.1214 26.7731 14.6733 30.311 17.9211C30.6589 18.2691 31.0649 18.6171 31.1229 19.0811C31.2969 19.777 30.8329 20.473 30.485 21.169C30.137 21.9809 29.963 22.8509 30.195 23.7208C30.543 25.0548 31.8189 25.8667 33.0368 26.5047C33.3848 26.6787 33.7328 26.8527 34.0808 26.7947C34.6607 26.6787 34.9507 25.9827 35.3567 25.5187C37.7926 22.3869 42.1424 26.6207 39.7645 29.4625L32.6888 37.9301C31.8189 38.9161 30.369 39.2061 29.267 38.4521C29.209 38.3941 29.151 38.3361 29.035 38.2781C27.9911 37.4082 27.9911 35.7262 28.861 34.7403L29.325 34.1603C30.079 33.2904 29.905 31.9564 29.035 31.2025L28.3391 30.6225C27.0051 29.5205 25.2652 29.2306 23.6413 29.7525C23.1193 29.9265 22.7133 30.2165 22.3654 30.6225L21.4374 31.9564C21.2634 32.1884 21.2054 32.4784 21.2054 32.7684C21.2054 33.2324 21.4374 33.6963 21.7854 33.9863L11.1719 47.9056H24.1053C37.2706 47.9056 48.2321 37.4082 48.4061 24.1848C48.5221 17.5151 45.8542 11.4254 41.4464 7.01765Z" fill="white"/>
</g>
</g>
<defs>
<clipPath id="clip0_534_12758">
<rect width="134" height="48" fill="white" transform="translate(0.5)"/>
</clipPath>
</defs>
</svg>
