<svg width="129" height="38" viewBox="0 0 129 38" fill="none" xmlns="http://www.w3.org/2000/svg">
<g clip-path="url(#clip0_534_12897)">
<path fill-rule="evenodd" clip-rule="evenodd" d="M81.3547 22.3457C81.3547 26.9777 81.3547 30.9989 81.3547 33.1877C81.3547 35.3765 80.8457 35.5801 79.675 35.8855H77.6898C76.9263 35.8855 76.7736 36.2418 76.7736 36.4963C76.7736 36.7508 77.1299 37.0562 77.8425 37.0562H81.8129H85.0705C86.5467 37.0562 88.5827 37.0562 90.9242 37.3616C93.2657 37.667 95.6071 37.667 97.745 37.667C103.704 37.89 109.602 36.4066 114.746 33.3913C119.203 33.8607 123.708 33.6028 128.082 32.6278C123.917 33.2786 119.675 33.2786 115.51 32.6278H115.051H114.746H113.932H113.372H112.914H112.608H111.997H111.437H109.961C98.6612 28.403 93.5202 17.1029 89.6008 5.59911L91.1787 9.51861C94.9239 18.9632 102.239 26.5524 111.539 30.6426C113.184 31.3887 114.886 32.0015 116.629 32.4751C118.509 30.705 120.003 28.5666 121.019 26.1932C122.035 23.8198 122.551 21.2624 122.534 18.6808C122.598 16.2623 122.146 13.8579 121.207 11.6283C120.267 9.39871 118.863 7.39531 117.088 5.75181C110.878 0 101.257 0 94.0801 0H84.7651H76.4682C75.6538 0 75.1957 -1.19209e-07 75.1957 0.45812C75.1957 0.91623 75.552 0.96713 76.1628 0.96713C76.9061 0.86894 77.6591 0.86894 78.4025 0.96713C80.2349 1.47614 80.7948 1.98515 80.9475 3.71581V23.4146L81.3547 22.3457ZM108.943 32.2206C105.493 34.2229 101.521 35.1448 97.5414 34.8674C93.0112 34.8674 90.7715 33.8494 90.1098 32.8314C89.4481 31.8134 89.499 30.4899 89.3972 29.3192C89.2954 28.1485 89.3972 24.5854 89.3972 19.1389C94.3566 25.4661 101.203 30.0483 108.943 32.2206ZM95.4544 1.37434C100.586 1.36283 105.578 3.04467 109.656 6.15911C111.38 7.77091 112.729 9.74131 113.608 11.9311C114.488 14.121 114.876 16.4772 114.746 18.8335C114.995 22.5651 113.992 26.2732 111.896 29.3701C109.128 27.8428 106.689 25.7844 104.718 23.3128C99.952 16.8056 96.7157 9.30641 95.2508 1.37434H95.4544Z" fill="white"/>
<path d="M14.2358 23.9726C14.2358 23.7547 14.3224 23.5457 14.4766 23.3915C14.6307 23.2375 14.8397 23.1509 15.0577 23.1509C15.1626 23.1428 15.2683 23.1565 15.3677 23.1912C15.4672 23.2259 15.5584 23.2808 15.6356 23.3526C15.7128 23.4242 15.7743 23.5111 15.8163 23.6078C15.8583 23.7044 15.8798 23.8087 15.8795 23.9139C15.8875 24.0267 15.8722 24.14 15.8346 24.2465C15.7969 24.3531 15.7376 24.4508 15.6605 24.5335C15.5834 24.616 15.49 24.6819 15.3864 24.7268C15.2826 24.7717 15.1707 24.7948 15.0577 24.7944C14.9474 24.8033 14.8367 24.7882 14.733 24.75C14.6293 24.7119 14.5351 24.6515 14.4569 24.5735C14.3788 24.4953 14.3185 24.4011 14.2803 24.2974C14.2421 24.1936 14.227 24.0829 14.2358 23.9726Z" fill="white"/>
<path d="M18.2274 24.7359C18.2274 24.7359 18.2274 24.7359 18.2274 24.2076C18.2274 23.6792 18.2274 22.8574 18.2274 22.6226C18.2039 22.7979 18.2039 22.9756 18.2274 23.1509C18.327 23.634 18.6071 24.0609 19.0107 24.3446C19.4144 24.6282 19.9109 24.7471 20.3992 24.6772C20.671 24.6932 20.9432 24.6534 21.1991 24.5602C21.455 24.4672 21.6891 24.3227 21.887 24.1357C22.085 23.9488 22.2425 23.7234 22.3501 23.4732C22.4577 23.2231 22.5129 22.9536 22.5125 22.6813C22.5125 21.6834 22.1014 21.0965 20.8101 20.0399L20.1057 19.3941C18.5208 18.1027 18.1687 17.2222 18.1687 16.2244C18.1653 15.8381 18.2449 15.4555 18.4021 15.1026C18.5592 14.7498 18.7902 14.4347 19.0796 14.1788C19.3689 13.9229 19.7098 13.7319 20.0793 13.619C20.4487 13.5061 20.838 13.4737 21.221 13.5241C21.6881 13.4559 22.1627 13.4559 22.6298 13.5241H23.0994C23.0994 13.5241 23.0994 14.0524 23.0994 15.109C23.1331 14.8755 23.1331 14.6382 23.0994 14.4046C22.8899 14.1105 22.6046 13.8789 22.2737 13.7341C21.943 13.5894 21.5792 13.5371 21.221 13.5828C20.9878 13.5667 20.7537 13.5987 20.5334 13.677C20.3132 13.7554 20.1114 13.8783 19.9407 14.0379C19.7699 14.1976 19.6339 14.3908 19.5411 14.6054C19.4484 14.82 19.4007 15.0513 19.4013 15.2851C19.4013 16.1657 19.8122 16.694 21.221 17.8092L21.6319 18.1027C23.3929 19.5115 23.8038 20.3921 23.8038 21.6247C23.7947 22.1077 23.6733 22.582 23.4492 23.0099C23.225 23.4378 22.9043 23.8077 22.5125 24.0901C21.8443 24.5043 21.0672 24.7088 20.2818 24.6772C19.6112 24.8586 18.9072 24.8786 18.2274 24.7359Z" fill="white"/>
<path d="M29.2629 21.0968C29.2803 20.5661 29.1589 20.04 28.9107 19.5706C28.9107 19.5706 26.7976 16.0487 26.2692 15.2855C26.0122 14.8524 25.6733 14.4736 25.2713 14.1702C25.058 14.1304 24.8391 14.1304 24.6256 14.1702H27.7368C27.6917 14.3632 27.6917 14.5641 27.7368 14.7572C27.7368 15.2268 30.2021 19.0423 30.4369 19.4532C30.7305 18.8075 32.6088 15.579 32.9023 15.1094C32.9032 14.951 32.8835 14.7932 32.8436 14.6398C32.8474 14.5484 32.8206 14.4584 32.7674 14.384C32.7142 14.3095 32.6378 14.255 32.5501 14.2289H35.3678C35.1379 14.1604 34.8931 14.1604 34.6633 14.2289C34.3532 14.4206 34.0919 14.6819 33.9002 14.992C32.8406 16.4818 31.8986 18.0519 31.0827 19.688C30.974 20.1712 30.974 20.6723 31.0827 21.1555V22.4469C31.0827 22.4469 31.0827 23.3274 31.0827 23.9144C31.0827 24.5015 31.0827 24.6776 31.6697 24.7363H31.8458H28.4411H28.1476H28.5585C28.5585 24.7363 28.9694 24.3252 29.0281 23.9144C29.0868 23.5035 29.0281 22.6817 29.0281 22.4469L29.2629 21.0968Z" fill="white"/>
<path d="M46.7556 23.0335C46.7556 23.5618 46.7556 24.3836 47.5774 24.6184C47.8891 24.6603 48.2049 24.6603 48.5165 24.6184H46.0512C45.699 24.6184 45.6403 24.6184 45.6403 24.6184C45.6403 24.6184 45.6403 24.6184 45.6403 24.0901L44.8771 16.4003L41.2378 24.1488C41.2378 24.7944 40.8856 24.9118 40.7682 24.9118C40.6507 24.9118 40.7681 24.9118 40.2985 24.2075C39.8289 23.5031 38.655 20.9202 38.5376 20.8028L36.6005 16.5764L35.9547 23.4444V24.2075C35.9514 24.3141 35.9845 24.4187 36.0485 24.5041C36.1125 24.5894 36.2037 24.6504 36.3069 24.6771H37.0114C37.0114 24.6771 37.0114 24.6771 36.7179 24.6771H34.1351H33.8416H34.4286C34.9569 24.6771 34.9569 24.0314 35.0156 23.4444L36.1308 13.8175L40.6507 23.1509L45.0533 13.8175C45.0533 13.8175 45.0533 13.8175 45.0533 14.2285L46.7556 23.0335Z" fill="white"/>
<path d="M50.3363 18.0442C50.3934 16.9883 50.3934 15.9301 50.3363 14.8744C50.3363 14.3461 50.3363 14.1113 49.6906 13.9939H49.4558H52.743C55.1497 13.9939 55.678 15.4614 55.678 16.2244C55.6375 16.7318 55.4975 17.2263 55.2658 17.6796C55.0341 18.1328 54.7154 18.5359 54.3279 18.866C55.0149 19.0666 55.6244 19.4719 56.0753 20.0277C56.5263 20.5835 56.7971 21.2635 56.852 21.9771C56.8391 22.4434 56.729 22.9018 56.5286 23.3229C56.3281 23.7442 56.0419 24.1187 55.6881 24.4227C55.3343 24.7267 54.9209 24.9534 54.4743 25.0882C54.0278 25.2231 53.5581 25.2631 53.0952 25.2055H49.4558H49.8667C49.8667 25.2055 50.2776 24.7946 50.2776 24.3837C50.3542 23.3286 50.3542 22.2692 50.2776 21.2139L50.3363 18.0442ZM51.5103 18.3964H52.3908C53.2126 18.3964 53.4474 18.3964 53.7409 18.0442C54.0876 17.6115 54.2742 17.0724 54.2692 16.5179C54.2692 15.2853 53.7409 13.9939 52.2733 13.9939H51.5689L51.5103 18.3964ZM51.5103 19.9226V23.1511C51.5103 23.8555 51.5103 24.0903 52.0385 24.2663C52.463 24.3685 52.9056 24.3685 53.33 24.2663C53.6096 24.2846 53.8898 24.2419 54.1513 24.1413C54.4128 24.0407 54.6494 23.8845 54.8446 23.6836C55.04 23.4827 55.1893 23.242 55.2826 22.9776C55.3758 22.7134 55.4105 22.4322 55.3845 22.1532C55.4031 21.5866 55.2848 21.0241 55.0395 20.5131C54.7942 20.0021 54.4294 19.5579 53.9757 19.2182C53.6221 18.9475 53.1882 18.8029 52.743 18.8073H51.5689L51.5103 19.9226Z" fill="white"/>
<path d="M63.1328 13.5243C63.8956 13.4572 64.6638 13.553 65.3867 13.8056C66.1095 14.058 66.7704 14.4613 67.3255 14.9887C67.8807 15.516 68.3173 16.1554 68.6064 16.8644C68.8956 17.5734 69.0308 18.3356 69.0029 19.1008C69.0029 20.6576 68.3844 22.1507 67.2836 23.2515C66.1827 24.3524 64.6897 24.9709 63.1328 24.9709C61.576 24.9709 60.0829 24.3524 58.9821 23.2515C57.8813 22.1507 57.2629 20.6576 57.2629 19.1008C57.3382 17.5954 57.9897 16.1767 59.0825 15.1386C60.1753 14.1005 61.6256 13.5225 63.1328 13.5243ZM63.4263 24.6187C64.7765 24.6187 67.5353 23.7968 67.5353 19.5117C67.5353 15.2266 65.3635 14.0526 63.0154 14.0526C62.3949 14.0382 61.7785 14.1588 61.2092 14.4062C60.6397 14.6534 60.1308 15.0215 59.7177 15.4849C59.3046 15.9483 58.9971 16.4959 58.8165 17.0898C58.6359 17.6837 58.5864 18.3098 58.6716 18.9247C58.5904 19.6142 58.6508 20.313 58.8489 20.9785C59.047 21.644 59.3787 22.262 59.8237 22.7949C60.2686 23.3278 60.8176 23.7644 61.437 24.0779C62.0565 24.3915 62.7334 24.5755 63.4263 24.6187Z" fill="white"/>
<path d="M71.4683 20.5093C71.4683 22.6812 71.4682 23.6205 71.8204 23.9139C72.1725 24.2074 72.4074 24.2074 73.5815 24.2074C74.7555 24.2074 74.9903 24.2074 75.3425 23.7965C75.5499 23.5413 75.6911 23.2389 75.7534 22.916C75.789 23.4241 75.789 23.9341 75.7534 24.4422C75.7534 24.7357 75.7534 24.7944 74.8142 24.7944H69.4137H69.8834C70.1769 24.7944 70.2356 24.3835 70.2943 23.9726C70.3709 22.9173 70.3709 21.858 70.2943 20.8028V18.1613C70.3514 17.1055 70.3514 16.0473 70.2943 14.9916C70.2943 14.4632 70.2943 14.2284 69.6486 14.111H69.179H72.4661H71.9965C71.5857 14.111 71.4683 14.4632 71.4096 14.9916V20.8615L71.4683 20.5093Z" fill="white"/>
<path d="M75.4599 11H0.5V11.3522H75.4599V11Z" fill="white"/>
<path d="M75.4599 26.7907H0.5V27.1429H75.4599V26.7907Z" fill="white"/>
<path d="M2.49574 17.6334C2.49574 14.9331 2.49574 14.4635 2.49574 13.8766C2.49574 13.2896 2.49574 12.9961 1.73265 12.8787H0.793442C0.793442 12.8787 0.793441 12.8787 1.14564 12.8787H6.36994C7.61813 12.7125 8.88713 12.8038 10.0986 13.147C11.3101 13.4903 12.4384 14.0783 13.4139 14.8744C14.5572 16.077 15.1886 17.6765 15.175 19.3356C15.2018 21.1698 14.5059 22.941 13.2378 24.2665C12.4448 24.9815 11.5173 25.5314 10.5095 25.8841C9.50165 26.2369 8.43368 26.3853 7.36784 26.321H5.31334H3.61104H1.08694H0.734741H1.38044C1.73265 26.321 1.79135 25.8514 1.85005 25.3231C2.19302 23.7383 2.40895 22.1287 2.49574 20.5097V17.6334ZM4.66764 19.5704C4.66764 21.3902 4.66764 22.7989 4.66764 23.0924C4.58982 23.5391 4.58982 23.9959 4.66764 24.4426C4.66764 24.7948 5.60685 25.147 6.95694 25.147C7.68392 25.2102 8.41621 25.1287 9.11144 24.907C9.80668 24.6854 10.451 24.328 11.0072 23.8555C11.5522 23.2812 11.9657 22.5953 12.2191 21.8452C12.4726 21.0951 12.5598 20.2989 12.4748 19.5117C12.5188 18.7044 12.3955 17.8964 12.1128 17.1389C11.8299 16.3813 11.3936 15.6903 10.8312 15.1092C9.45684 13.9016 7.66954 13.2708 5.84164 13.3483H4.66764C4.66764 13.3483 4.66764 13.3483 4.66764 13.7005C4.66764 14.0527 4.66764 15.8137 4.66764 17.2225V19.5704Z" fill="white"/>
</g>
<defs>
<clipPath id="clip0_534_12897">
<rect width="128" height="38" fill="white" transform="translate(0.5)"/>
</clipPath>
</defs>
</svg>
