<svg xmlns="http://www.w3.org/2000/svg" xmlns:xlink="http://www.w3.org/1999/xlink" zoomAndPan="magnify" preserveAspectRatio="xMidYMid meet" version="1.0" viewBox="113.23 125.41 169.48 83.96"><path fill="#18bbd3" d="M 127.875 165.097656 C 119.789062 165.097656 113.226562 171.703125 113.226562 179.855469 C 113.226562 188.007812 119.789062 194.613281 127.875 194.613281 C 135.96875 194.613281 142.523438 188.007812 142.523438 179.855469 C 142.523438 171.703125 135.96875 165.097656 127.875 165.097656 Z M 127.875 187.234375 C 123.832031 187.234375 120.550781 183.933594 120.550781 179.855469 C 120.550781 175.78125 123.832031 172.476562 127.875 172.476562 C 131.921875 172.476562 135.199219 175.78125 135.199219 179.855469 C 135.199219 183.933594 131.921875 187.234375 127.875 187.234375 Z M 127.875 187.234375 " fill-opacity="0.7" fill-rule="nonzero"/><path fill="#18bbd3" d="M 142.523438 205.828125 C 142.523438 207.785156 140.953125 209.371094 139.007812 209.371094 L 138.714844 209.371094 C 136.773438 209.371094 135.199219 207.785156 135.199219 205.828125 L 135.199219 168.640625 C 135.199219 166.683594 136.773438 165.097656 138.714844 165.097656 L 139.007812 165.097656 C 140.953125 165.097656 142.523438 166.683594 142.523438 168.640625 Z M 142.523438 205.828125 " fill-opacity="0.7" fill-rule="nonzero"/><path fill="#18bbd3" d="M 167.15625 167.242188 C 166.972656 167.671875 166.871094 168.144531 166.871094 168.640625 L 166.871094 179.855469 C 166.871094 183.933594 163.589844 187.234375 159.546875 187.234375 C 155.5 187.234375 152.222656 183.933594 152.222656 179.855469 L 152.222656 168.640625 C 152.222656 168.144531 152.121094 167.671875 151.9375 167.242188 C 147.714844 169.832031 144.898438 174.511719 144.898438 179.855469 C 144.898438 185.199219 147.714844 189.878906 151.9375 192.46875 C 154.15625 193.832031 156.761719 194.613281 159.546875 194.613281 C 162.332031 194.613281 164.9375 193.832031 167.15625 192.46875 C 171.375 189.878906 174.195312 185.199219 174.195312 179.855469 C 174.195312 174.511719 171.375 169.832031 167.15625 167.242188 Z M 167.15625 167.242188 " fill-opacity="0.7" fill-rule="nonzero"/><path fill="#18bbd3" d="M 174.195312 168.640625 L 174.195312 179.855469 C 174.195312 185.199219 171.375 189.878906 167.15625 192.46875 C 166.972656 192.039062 166.871094 191.566406 166.871094 191.070312 L 166.871094 168.640625 C 166.871094 168.144531 166.972656 167.671875 167.15625 167.242188 C 167.691406 165.980469 168.9375 165.097656 170.386719 165.097656 L 170.679688 165.097656 C 172.621094 165.097656 174.195312 166.683594 174.195312 168.640625 Z M 174.195312 168.640625 " fill-opacity="0.7" fill-rule="nonzero"/><path fill="#18bbd3" d="M 152.222656 168.640625 L 152.222656 191.070312 C 152.222656 191.566406 152.121094 192.039062 151.9375 192.46875 C 147.714844 189.878906 144.898438 185.199219 144.898438 179.855469 L 144.898438 168.640625 C 144.898438 166.683594 146.472656 165.097656 148.414062 165.097656 L 148.707031 165.097656 C 150.15625 165.097656 151.402344 165.980469 151.9375 167.242188 C 152.121094 167.671875 152.222656 168.144531 152.222656 168.640625 Z M 152.222656 168.640625 " fill-opacity="0.7" fill-rule="nonzero"/><path fill="#18bbd3" d="M 199.222656 167.082031 L 199.007812 166.957031 C 196.898438 165.773438 194.472656 165.097656 191.886719 165.097656 C 189.214844 165.097656 186.714844 165.816406 184.558594 167.074219 C 184.464844 167.128906 184.371094 167.183594 184.277344 167.242188 C 180.054688 169.832031 177.238281 174.511719 177.238281 179.855469 C 177.238281 185.199219 180.054688 189.878906 184.277344 192.46875 C 184.460938 192.039062 184.5625 191.566406 184.5625 191.070312 L 184.5625 179.855469 C 184.5625 175.78125 187.839844 172.476562 191.886719 172.476562 C 193.195312 172.476562 194.425781 172.824219 195.488281 173.429688 L 195.5625 173.472656 C 195.566406 173.476562 195.574219 173.480469 195.578125 173.484375 C 197.257812 174.445312 199.394531 173.863281 200.363281 172.175781 L 200.507812 171.921875 C 201.480469 170.226562 200.902344 168.058594 199.222656 167.082031 Z M 199.222656 167.082031 " fill-opacity="0.7" fill-rule="nonzero"/><path fill="#18bbd3" d="M 184.5625 168.640625 L 184.5625 191.070312 C 184.5625 191.566406 184.460938 192.039062 184.277344 192.46875 C 183.738281 193.730469 182.496094 194.613281 181.046875 194.613281 L 180.753906 194.613281 C 178.8125 194.613281 177.238281 193.027344 177.238281 191.070312 L 177.238281 168.640625 C 177.238281 166.683594 178.8125 165.097656 180.753906 165.097656 L 181.046875 165.097656 C 181.265625 165.097656 181.480469 165.117188 181.6875 165.160156 C 182.671875 165.339844 183.515625 165.9375 184.027344 166.765625 C 184.125 166.917969 184.207031 167.074219 184.277344 167.242188 C 184.460938 167.671875 184.5625 168.140625 184.5625 168.640625 Z M 184.5625 168.640625 " fill-opacity="0.7" fill-rule="nonzero"/><path fill="#18bbd3" d="M 200.507812 171.921875 L 200.363281 172.175781 C 199.394531 173.863281 197.257812 174.445312 195.578125 173.484375 C 195.574219 173.480469 195.566406 173.476562 195.5625 173.472656 L 195.488281 173.429688 L 184.558594 167.074219 C 186.714844 165.816406 189.214844 165.097656 191.886719 165.097656 C 194.472656 165.097656 196.898438 165.773438 199.007812 166.957031 L 199.222656 167.082031 C 200.902344 168.058594 201.480469 170.226562 200.507812 171.921875 Z M 200.507812 171.921875 " fill-opacity="0.7" fill-rule="nonzero"/><path fill="#18bbd3" d="M 236.519531 166.136719 C 237.894531 164.753906 240.117188 164.753906 241.492188 166.136719 L 241.699219 166.34375 C 243.070312 167.726562 243.070312 169.96875 241.699219 171.351562 L 219.636719 193.582031 C 218.261719 194.964844 216.039062 194.964844 214.664062 193.582031 L 214.457031 193.371094 C 213.085938 191.988281 213.085938 189.746094 214.457031 188.363281 Z M 236.519531 166.136719 " fill-opacity="0.7" fill-rule="nonzero"/><path fill="#18bbd3" d="M 220.316406 171.351562 C 218.945312 169.96875 218.945312 167.726562 220.316406 166.34375 L 220.523438 166.136719 C 221.898438 164.753906 224.121094 164.753906 225.496094 166.136719 L 247.558594 188.363281 C 248.929688 189.746094 248.929688 191.988281 247.558594 193.371094 L 247.351562 193.582031 C 245.976562 194.964844 243.753906 194.964844 242.378906 193.582031 Z M 220.316406 171.351562 " fill-opacity="0.7" fill-rule="nonzero"/><path fill="#18bbd3" d="M 211.457031 191.070312 C 211.457031 193.027344 209.882812 194.613281 207.941406 194.613281 L 207.648438 194.613281 C 205.707031 194.613281 204.132812 193.027344 204.132812 191.070312 L 204.132812 168.640625 C 204.132812 166.683594 205.707031 165.097656 207.648438 165.097656 L 207.941406 165.097656 C 209.882812 165.097656 211.457031 166.683594 211.457031 168.640625 Z M 211.457031 191.070312 " fill-opacity="0.7" fill-rule="nonzero"/><path fill="#18bbd3" d="M 211.457031 186.644531 C 211.457031 188.601562 209.882812 190.1875 207.941406 190.1875 L 207.648438 190.1875 C 205.707031 190.1875 204.132812 188.601562 204.132812 186.644531 L 204.132812 181.921875 C 204.132812 179.964844 205.707031 178.378906 207.648438 178.378906 L 207.941406 178.378906 C 209.882812 178.378906 211.457031 179.964844 211.457031 181.921875 Z M 211.457031 186.644531 " fill-opacity="0.7" fill-rule="nonzero"/><path fill="#18bbd3" d="M 260.914062 166.722656 L 257.902344 163.707031 L 267.28125 163.707031 L 267.378906 161.558594 C 267.429688 160.378906 267.515625 158.132812 267.570312 156.570312 L 267.667969 153.726562 L 271.039062 157.097656 L 274.410156 160.464844 L 274.410156 169.738281 L 263.929688 169.738281 Z M 241.390625 152.886719 L 241.390625 148.25 L 244.761719 144.882812 L 248.132812 141.511719 L 248.226562 143.527344 C 248.28125 144.632812 248.367188 146.878906 248.421875 148.515625 L 248.519531 151.496094 L 257.898438 151.496094 L 254.882812 154.511719 L 251.871094 157.527344 L 241.390625 157.527344 Z M 275.867188 151.246094 C 275.816406 149.929688 275.726562 147.71875 275.675781 146.332031 L 275.574219 143.804688 L 266.195312 143.804688 L 269.285156 140.714844 L 272.371094 137.625 L 282.703125 137.625 L 282.703125 146.898438 L 279.332031 150.269531 L 275.960938 153.636719 Z M 253.035156 138.039062 L 249.683594 134.679688 L 249.683594 125.410156 L 260.015625 125.410156 L 263.101562 128.5 L 266.191406 131.59375 L 256.800781 131.59375 L 256.699219 134.570312 C 256.640625 136.207031 256.546875 138.414062 256.492188 139.472656 L 256.390625 141.398438 Z M 253.035156 138.039062 " fill-opacity="1" fill-rule="nonzero"/></svg>